<?xml version="1.0" encoding="utf-8" standalone="no"?>
<!DOCTYPE svg PUBLIC "-//W3C//DTD SVG 1.1//EN"
  "http://www.w3.org/Graphics/SVG/1.1/DTD/svg11.dtd">
<!-- Created with matplotlib (https://matplotlib.org/) -->
<svg height="180pt" version="1.1" viewBox="0 0 216 180" width="216pt" xmlns="http://www.w3.org/2000/svg" xmlns:xlink="http://www.w3.org/1999/xlink">
 <defs>
  <style type="text/css">
*{stroke-linecap:butt;stroke-linejoin:round;}
  </style>
 </defs>
 <g id="figure_1">
  <g id="patch_1">
   <path d="M 0 180 
L 216 180 
L 216 0 
L 0 0 
z
" style="fill:#ffffff;"/>
  </g>
  <g id="axes_1">
   <g id="patch_2">
    <path d="M 47.9 136.6 
L 205.2 136.6 
L 205.2 10.8 
L 47.9 10.8 
z
" style="fill:#ffffff;"/>
   </g>
   <g id="matplotlib.axis_1">
    <g id="xtick_1">
     <g id="line2d_1">
      <path clip-path="url(#p77e2457310)" d="M 86.136957 136.6 
L 86.136957 10.8 
" style="fill:none;stroke:#b0b0b0;stroke-linecap:square;stroke-width:0.8;"/>
     </g>
     <g id="line2d_2">
      <defs>
       <path d="M 0 0 
L 0 3.5 
" id="m6f351bca2e" style="stroke:#000000;stroke-width:0.8;"/>
      </defs>
      <g>
       <use style="stroke:#000000;stroke-width:0.8;" x="86.136957" xlink:href="#m6f351bca2e" y="136.6"/>
      </g>
     </g>
     <g id="text_1">
      <!-- 5 -->
      <defs>
       <path d="M 10.796875 72.90625 
L 49.515625 72.90625 
L 49.515625 64.59375 
L 19.828125 64.59375 
L 19.828125 46.734375 
Q 21.96875 47.46875 24.109375 47.828125 
Q 26.265625 48.1875 28.421875 48.1875 
Q 40.625 48.1875 47.75 41.5 
Q 54.890625 34.8125 54.890625 23.390625 
Q 54.890625 11.625 47.5625 5.09375 
Q 40.234375 -1.421875 26.90625 -1.421875 
Q 22.3125 -1.421875 17.546875 -0.640625 
Q 12.796875 0.140625 7.71875 1.703125 
L 7.71875 11.625 
Q 12.109375 9.234375 16.796875 8.0625 
Q 21.484375 6.890625 26.703125 6.890625 
Q 35.15625 6.890625 40.078125 11.328125 
Q 45.015625 15.765625 45.015625 23.390625 
Q 45.015625 31 40.078125 35.4375 
Q 35.15625 39.890625 26.703125 39.890625 
Q 22.75 39.890625 18.8125 39.015625 
Q 14.890625 38.140625 10.796875 36.28125 
z
" id="DejaVuSans-53"/>
      </defs>
      <g transform="translate(82.319457 152.718125)scale(0.12 -0.12)">
       <use xlink:href="#DejaVuSans-53"/>
      </g>
     </g>
    </g>
    <g id="xtick_2">
     <g id="line2d_3">
      <path clip-path="url(#p77e2457310)" d="M 148.31087 136.6 
L 148.31087 10.8 
" style="fill:none;stroke:#b0b0b0;stroke-linecap:square;stroke-width:0.8;"/>
     </g>
     <g id="line2d_4">
      <g>
       <use style="stroke:#000000;stroke-width:0.8;" x="148.31087" xlink:href="#m6f351bca2e" y="136.6"/>
      </g>
     </g>
     <g id="text_2">
      <!-- 10 -->
      <defs>
       <path d="M 12.40625 8.296875 
L 28.515625 8.296875 
L 28.515625 63.921875 
L 10.984375 60.40625 
L 10.984375 69.390625 
L 28.421875 72.90625 
L 38.28125 72.90625 
L 38.28125 8.296875 
L 54.390625 8.296875 
L 54.390625 0 
L 12.40625 0 
z
" id="DejaVuSans-49"/>
       <path d="M 31.78125 66.40625 
Q 24.171875 66.40625 20.328125 58.90625 
Q 16.5 51.421875 16.5 36.375 
Q 16.5 21.390625 20.328125 13.890625 
Q 24.171875 6.390625 31.78125 6.390625 
Q 39.453125 6.390625 43.28125 13.890625 
Q 47.125 21.390625 47.125 36.375 
Q 47.125 51.421875 43.28125 58.90625 
Q 39.453125 66.40625 31.78125 66.40625 
z
M 31.78125 74.21875 
Q 44.046875 74.21875 50.515625 64.515625 
Q 56.984375 54.828125 56.984375 36.375 
Q 56.984375 17.96875 50.515625 8.265625 
Q 44.046875 -1.421875 31.78125 -1.421875 
Q 19.53125 -1.421875 13.0625 8.265625 
Q 6.59375 17.96875 6.59375 36.375 
Q 6.59375 54.828125 13.0625 64.515625 
Q 19.53125 74.21875 31.78125 74.21875 
z
" id="DejaVuSans-48"/>
      </defs>
      <g transform="translate(140.67587 152.718125)scale(0.12 -0.12)">
       <use xlink:href="#DejaVuSans-49"/>
       <use x="63.623047" xlink:href="#DejaVuSans-48"/>
      </g>
     </g>
    </g>
    <g id="text_3">
     <!-- Frequency (Hz) -->
     <defs>
      <path d="M 9.8125 72.90625 
L 51.703125 72.90625 
L 51.703125 64.59375 
L 19.671875 64.59375 
L 19.671875 43.109375 
L 48.578125 43.109375 
L 48.578125 34.8125 
L 19.671875 34.8125 
L 19.671875 0 
L 9.8125 0 
z
" id="DejaVuSans-70"/>
      <path d="M 41.109375 46.296875 
Q 39.59375 47.171875 37.8125 47.578125 
Q 36.03125 48 33.890625 48 
Q 26.265625 48 22.1875 43.046875 
Q 18.109375 38.09375 18.109375 28.8125 
L 18.109375 0 
L 9.078125 0 
L 9.078125 54.6875 
L 18.109375 54.6875 
L 18.109375 46.1875 
Q 20.953125 51.171875 25.484375 53.578125 
Q 30.03125 56 36.53125 56 
Q 37.453125 56 38.578125 55.875 
Q 39.703125 55.765625 41.0625 55.515625 
z
" id="DejaVuSans-114"/>
      <path d="M 56.203125 29.59375 
L 56.203125 25.203125 
L 14.890625 25.203125 
Q 15.484375 15.921875 20.484375 11.0625 
Q 25.484375 6.203125 34.421875 6.203125 
Q 39.59375 6.203125 44.453125 7.46875 
Q 49.3125 8.734375 54.109375 11.28125 
L 54.109375 2.78125 
Q 49.265625 0.734375 44.1875 -0.34375 
Q 39.109375 -1.421875 33.890625 -1.421875 
Q 20.796875 -1.421875 13.15625 6.1875 
Q 5.515625 13.8125 5.515625 26.8125 
Q 5.515625 40.234375 12.765625 48.109375 
Q 20.015625 56 32.328125 56 
Q 43.359375 56 49.78125 48.890625 
Q 56.203125 41.796875 56.203125 29.59375 
z
M 47.21875 32.234375 
Q 47.125 39.59375 43.09375 43.984375 
Q 39.0625 48.390625 32.421875 48.390625 
Q 24.90625 48.390625 20.390625 44.140625 
Q 15.875 39.890625 15.1875 32.171875 
z
" id="DejaVuSans-101"/>
      <path d="M 14.796875 27.296875 
Q 14.796875 17.390625 18.875 11.75 
Q 22.953125 6.109375 30.078125 6.109375 
Q 37.203125 6.109375 41.296875 11.75 
Q 45.40625 17.390625 45.40625 27.296875 
Q 45.40625 37.203125 41.296875 42.84375 
Q 37.203125 48.484375 30.078125 48.484375 
Q 22.953125 48.484375 18.875 42.84375 
Q 14.796875 37.203125 14.796875 27.296875 
z
M 45.40625 8.203125 
Q 42.578125 3.328125 38.25 0.953125 
Q 33.9375 -1.421875 27.875 -1.421875 
Q 17.96875 -1.421875 11.734375 6.484375 
Q 5.515625 14.40625 5.515625 27.296875 
Q 5.515625 40.1875 11.734375 48.09375 
Q 17.96875 56 27.875 56 
Q 33.9375 56 38.25 53.625 
Q 42.578125 51.265625 45.40625 46.390625 
L 45.40625 54.6875 
L 54.390625 54.6875 
L 54.390625 -20.796875 
L 45.40625 -20.796875 
z
" id="DejaVuSans-113"/>
      <path d="M 8.5 21.578125 
L 8.5 54.6875 
L 17.484375 54.6875 
L 17.484375 21.921875 
Q 17.484375 14.15625 20.5 10.265625 
Q 23.53125 6.390625 29.59375 6.390625 
Q 36.859375 6.390625 41.078125 11.03125 
Q 45.3125 15.671875 45.3125 23.6875 
L 45.3125 54.6875 
L 54.296875 54.6875 
L 54.296875 0 
L 45.3125 0 
L 45.3125 8.40625 
Q 42.046875 3.421875 37.71875 1 
Q 33.40625 -1.421875 27.6875 -1.421875 
Q 18.265625 -1.421875 13.375 4.4375 
Q 8.5 10.296875 8.5 21.578125 
z
M 31.109375 56 
z
" id="DejaVuSans-117"/>
      <path d="M 54.890625 33.015625 
L 54.890625 0 
L 45.90625 0 
L 45.90625 32.71875 
Q 45.90625 40.484375 42.875 44.328125 
Q 39.84375 48.1875 33.796875 48.1875 
Q 26.515625 48.1875 22.3125 43.546875 
Q 18.109375 38.921875 18.109375 30.90625 
L 18.109375 0 
L 9.078125 0 
L 9.078125 54.6875 
L 18.109375 54.6875 
L 18.109375 46.1875 
Q 21.34375 51.125 25.703125 53.5625 
Q 30.078125 56 35.796875 56 
Q 45.21875 56 50.046875 50.171875 
Q 54.890625 44.34375 54.890625 33.015625 
z
" id="DejaVuSans-110"/>
      <path d="M 48.78125 52.59375 
L 48.78125 44.1875 
Q 44.96875 46.296875 41.140625 47.34375 
Q 37.3125 48.390625 33.40625 48.390625 
Q 24.65625 48.390625 19.8125 42.84375 
Q 14.984375 37.3125 14.984375 27.296875 
Q 14.984375 17.28125 19.8125 11.734375 
Q 24.65625 6.203125 33.40625 6.203125 
Q 37.3125 6.203125 41.140625 7.25 
Q 44.96875 8.296875 48.78125 10.40625 
L 48.78125 2.09375 
Q 45.015625 0.34375 40.984375 -0.53125 
Q 36.96875 -1.421875 32.421875 -1.421875 
Q 20.0625 -1.421875 12.78125 6.34375 
Q 5.515625 14.109375 5.515625 27.296875 
Q 5.515625 40.671875 12.859375 48.328125 
Q 20.21875 56 33.015625 56 
Q 37.15625 56 41.109375 55.140625 
Q 45.0625 54.296875 48.78125 52.59375 
z
" id="DejaVuSans-99"/>
      <path d="M 32.171875 -5.078125 
Q 28.375 -14.84375 24.75 -17.8125 
Q 21.140625 -20.796875 15.09375 -20.796875 
L 7.90625 -20.796875 
L 7.90625 -13.28125 
L 13.1875 -13.28125 
Q 16.890625 -13.28125 18.9375 -11.515625 
Q 21 -9.765625 23.484375 -3.21875 
L 25.09375 0.875 
L 2.984375 54.6875 
L 12.5 54.6875 
L 29.59375 11.921875 
L 46.6875 54.6875 
L 56.203125 54.6875 
z
" id="DejaVuSans-121"/>
      <path id="DejaVuSans-32"/>
      <path d="M 31 75.875 
Q 24.46875 64.65625 21.28125 53.65625 
Q 18.109375 42.671875 18.109375 31.390625 
Q 18.109375 20.125 21.3125 9.0625 
Q 24.515625 -2 31 -13.1875 
L 23.1875 -13.1875 
Q 15.875 -1.703125 12.234375 9.375 
Q 8.59375 20.453125 8.59375 31.390625 
Q 8.59375 42.28125 12.203125 53.3125 
Q 15.828125 64.359375 23.1875 75.875 
z
" id="DejaVuSans-40"/>
      <path d="M 9.8125 72.90625 
L 19.671875 72.90625 
L 19.671875 43.015625 
L 55.515625 43.015625 
L 55.515625 72.90625 
L 65.375 72.90625 
L 65.375 0 
L 55.515625 0 
L 55.515625 34.71875 
L 19.671875 34.71875 
L 19.671875 0 
L 9.8125 0 
z
" id="DejaVuSans-72"/>
      <path d="M 5.515625 54.6875 
L 48.1875 54.6875 
L 48.1875 46.484375 
L 14.40625 7.171875 
L 48.1875 7.171875 
L 48.1875 0 
L 4.296875 0 
L 4.296875 8.203125 
L 38.09375 47.515625 
L 5.515625 47.515625 
z
" id="DejaVuSans-122"/>
      <path d="M 8.015625 75.875 
L 15.828125 75.875 
Q 23.140625 64.359375 26.78125 53.3125 
Q 30.421875 42.28125 30.421875 31.390625 
Q 30.421875 20.453125 26.78125 9.375 
Q 23.140625 -1.703125 15.828125 -13.1875 
L 8.015625 -13.1875 
Q 14.5 -2 17.703125 9.0625 
Q 20.90625 20.125 20.90625 31.390625 
Q 20.90625 42.671875 17.703125 53.65625 
Q 14.5 64.65625 8.015625 75.875 
z
" id="DejaVuSans-41"/>
     </defs>
     <g transform="translate(80.742812 168.331875)scale(0.12 -0.12)">
      <use xlink:href="#DejaVuSans-70"/>
      <use x="57.410156" xlink:href="#DejaVuSans-114"/>
      <use x="98.492188" xlink:href="#DejaVuSans-101"/>
      <use x="160.015625" xlink:href="#DejaVuSans-113"/>
      <use x="223.492188" xlink:href="#DejaVuSans-117"/>
      <use x="286.871094" xlink:href="#DejaVuSans-101"/>
      <use x="348.394531" xlink:href="#DejaVuSans-110"/>
      <use x="411.773438" xlink:href="#DejaVuSans-99"/>
      <use x="466.753906" xlink:href="#DejaVuSans-121"/>
      <use x="525.933594" xlink:href="#DejaVuSans-32"/>
      <use x="557.720703" xlink:href="#DejaVuSans-40"/>
      <use x="596.734375" xlink:href="#DejaVuSans-72"/>
      <use x="671.929688" xlink:href="#DejaVuSans-122"/>
      <use x="724.419922" xlink:href="#DejaVuSans-41"/>
     </g>
    </g>
   </g>
   <g id="matplotlib.axis_2">
    <g id="ytick_1">
     <g id="line2d_5">
      <path clip-path="url(#p77e2457310)" d="M 47.9 131.496562 
L 205.2 131.496562 
" style="fill:none;stroke:#b0b0b0;stroke-linecap:square;stroke-width:0.8;"/>
     </g>
     <g id="line2d_6">
      <defs>
       <path d="M 0 0 
L -3.5 0 
" id="md4e0bc923f" style="stroke:#000000;stroke-width:0.8;"/>
      </defs>
      <g>
       <use style="stroke:#000000;stroke-width:0.8;" x="47.9" xlink:href="#md4e0bc923f" y="131.496562"/>
      </g>
     </g>
     <g id="text_4">
      <!-- 0 -->
      <g transform="translate(33.265 136.055625)scale(0.12 -0.12)">
       <use xlink:href="#DejaVuSans-48"/>
      </g>
     </g>
    </g>
    <g id="ytick_2">
     <g id="line2d_7">
      <path clip-path="url(#p77e2457310)" d="M 47.9 99.018238 
L 205.2 99.018238 
" style="fill:none;stroke:#b0b0b0;stroke-linecap:square;stroke-width:0.8;"/>
     </g>
     <g id="line2d_8">
      <g>
       <use style="stroke:#000000;stroke-width:0.8;" x="47.9" xlink:href="#md4e0bc923f" y="99.018238"/>
      </g>
     </g>
     <g id="text_5">
      <!-- 20 -->
      <defs>
       <path d="M 19.1875 8.296875 
L 53.609375 8.296875 
L 53.609375 0 
L 7.328125 0 
L 7.328125 8.296875 
Q 12.9375 14.109375 22.625 23.890625 
Q 32.328125 33.6875 34.8125 36.53125 
Q 39.546875 41.84375 41.421875 45.53125 
Q 43.3125 49.21875 43.3125 52.78125 
Q 43.3125 58.59375 39.234375 62.25 
Q 35.15625 65.921875 28.609375 65.921875 
Q 23.96875 65.921875 18.8125 64.3125 
Q 13.671875 62.703125 7.8125 59.421875 
L 7.8125 69.390625 
Q 13.765625 71.78125 18.9375 73 
Q 24.125 74.21875 28.421875 74.21875 
Q 39.75 74.21875 46.484375 68.546875 
Q 53.21875 62.890625 53.21875 53.421875 
Q 53.21875 48.921875 51.53125 44.890625 
Q 49.859375 40.875 45.40625 35.40625 
Q 44.1875 33.984375 37.640625 27.21875 
Q 31.109375 20.453125 19.1875 8.296875 
z
" id="DejaVuSans-50"/>
      </defs>
      <g transform="translate(25.63 103.577301)scale(0.12 -0.12)">
       <use xlink:href="#DejaVuSans-50"/>
       <use x="63.623047" xlink:href="#DejaVuSans-48"/>
      </g>
     </g>
    </g>
    <g id="ytick_3">
     <g id="line2d_9">
      <path clip-path="url(#p77e2457310)" d="M 47.9 66.539914 
L 205.2 66.539914 
" style="fill:none;stroke:#b0b0b0;stroke-linecap:square;stroke-width:0.8;"/>
     </g>
     <g id="line2d_10">
      <g>
       <use style="stroke:#000000;stroke-width:0.8;" x="47.9" xlink:href="#md4e0bc923f" y="66.539914"/>
      </g>
     </g>
     <g id="text_6">
      <!-- 40 -->
      <defs>
       <path d="M 37.796875 64.3125 
L 12.890625 25.390625 
L 37.796875 25.390625 
z
M 35.203125 72.90625 
L 47.609375 72.90625 
L 47.609375 25.390625 
L 58.015625 25.390625 
L 58.015625 17.1875 
L 47.609375 17.1875 
L 47.609375 0 
L 37.796875 0 
L 37.796875 17.1875 
L 4.890625 17.1875 
L 4.890625 26.703125 
z
" id="DejaVuSans-52"/>
      </defs>
      <g transform="translate(25.63 71.098976)scale(0.12 -0.12)">
       <use xlink:href="#DejaVuSans-52"/>
       <use x="63.623047" xlink:href="#DejaVuSans-48"/>
      </g>
     </g>
    </g>
    <g id="ytick_4">
     <g id="line2d_11">
      <path clip-path="url(#p77e2457310)" d="M 47.9 34.06159 
L 205.2 34.06159 
" style="fill:none;stroke:#b0b0b0;stroke-linecap:square;stroke-width:0.8;"/>
     </g>
     <g id="line2d_12">
      <g>
       <use style="stroke:#000000;stroke-width:0.8;" x="47.9" xlink:href="#md4e0bc923f" y="34.06159"/>
      </g>
     </g>
     <g id="text_7">
      <!-- 60 -->
      <defs>
       <path d="M 33.015625 40.375 
Q 26.375 40.375 22.484375 35.828125 
Q 18.609375 31.296875 18.609375 23.390625 
Q 18.609375 15.53125 22.484375 10.953125 
Q 26.375 6.390625 33.015625 6.390625 
Q 39.65625 6.390625 43.53125 10.953125 
Q 47.40625 15.53125 47.40625 23.390625 
Q 47.40625 31.296875 43.53125 35.828125 
Q 39.65625 40.375 33.015625 40.375 
z
M 52.59375 71.296875 
L 52.59375 62.3125 
Q 48.875 64.0625 45.09375 64.984375 
Q 41.3125 65.921875 37.59375 65.921875 
Q 27.828125 65.921875 22.671875 59.328125 
Q 17.53125 52.734375 16.796875 39.40625 
Q 19.671875 43.65625 24.015625 45.921875 
Q 28.375 48.1875 33.59375 48.1875 
Q 44.578125 48.1875 50.953125 41.515625 
Q 57.328125 34.859375 57.328125 23.390625 
Q 57.328125 12.15625 50.6875 5.359375 
Q 44.046875 -1.421875 33.015625 -1.421875 
Q 20.359375 -1.421875 13.671875 8.265625 
Q 6.984375 17.96875 6.984375 36.375 
Q 6.984375 53.65625 15.1875 63.9375 
Q 23.390625 74.21875 37.203125 74.21875 
Q 40.921875 74.21875 44.703125 73.484375 
Q 48.484375 72.75 52.59375 71.296875 
z
" id="DejaVuSans-54"/>
      </defs>
      <g transform="translate(25.63 38.620652)scale(0.12 -0.12)">
       <use xlink:href="#DejaVuSans-54"/>
       <use x="63.623047" xlink:href="#DejaVuSans-48"/>
      </g>
     </g>
    </g>
    <g id="text_8">
     <!-- Standard deviation -->
     <defs>
      <path d="M 53.515625 70.515625 
L 53.515625 60.890625 
Q 47.90625 63.578125 42.921875 64.890625 
Q 37.9375 66.21875 33.296875 66.21875 
Q 25.25 66.21875 20.875 63.09375 
Q 16.5 59.96875 16.5 54.203125 
Q 16.5 49.359375 19.40625 46.890625 
Q 22.3125 44.4375 30.421875 42.921875 
L 36.375 41.703125 
Q 47.40625 39.59375 52.65625 34.296875 
Q 57.90625 29 57.90625 20.125 
Q 57.90625 9.515625 50.796875 4.046875 
Q 43.703125 -1.421875 29.984375 -1.421875 
Q 24.8125 -1.421875 18.96875 -0.25 
Q 13.140625 0.921875 6.890625 3.21875 
L 6.890625 13.375 
Q 12.890625 10.015625 18.65625 8.296875 
Q 24.421875 6.59375 29.984375 6.59375 
Q 38.421875 6.59375 43.015625 9.90625 
Q 47.609375 13.234375 47.609375 19.390625 
Q 47.609375 24.75 44.3125 27.78125 
Q 41.015625 30.8125 33.5 32.328125 
L 27.484375 33.5 
Q 16.453125 35.6875 11.515625 40.375 
Q 6.59375 45.0625 6.59375 53.421875 
Q 6.59375 63.09375 13.40625 68.65625 
Q 20.21875 74.21875 32.171875 74.21875 
Q 37.3125 74.21875 42.625 73.28125 
Q 47.953125 72.359375 53.515625 70.515625 
z
" id="DejaVuSans-83"/>
      <path d="M 18.3125 70.21875 
L 18.3125 54.6875 
L 36.8125 54.6875 
L 36.8125 47.703125 
L 18.3125 47.703125 
L 18.3125 18.015625 
Q 18.3125 11.328125 20.140625 9.421875 
Q 21.96875 7.515625 27.59375 7.515625 
L 36.8125 7.515625 
L 36.8125 0 
L 27.59375 0 
Q 17.1875 0 13.234375 3.875 
Q 9.28125 7.765625 9.28125 18.015625 
L 9.28125 47.703125 
L 2.6875 47.703125 
L 2.6875 54.6875 
L 9.28125 54.6875 
L 9.28125 70.21875 
z
" id="DejaVuSans-116"/>
      <path d="M 34.28125 27.484375 
Q 23.390625 27.484375 19.1875 25 
Q 14.984375 22.515625 14.984375 16.5 
Q 14.984375 11.71875 18.140625 8.90625 
Q 21.296875 6.109375 26.703125 6.109375 
Q 34.1875 6.109375 38.703125 11.40625 
Q 43.21875 16.703125 43.21875 25.484375 
L 43.21875 27.484375 
z
M 52.203125 31.203125 
L 52.203125 0 
L 43.21875 0 
L 43.21875 8.296875 
Q 40.140625 3.328125 35.546875 0.953125 
Q 30.953125 -1.421875 24.3125 -1.421875 
Q 15.921875 -1.421875 10.953125 3.296875 
Q 6 8.015625 6 15.921875 
Q 6 25.140625 12.171875 29.828125 
Q 18.359375 34.515625 30.609375 34.515625 
L 43.21875 34.515625 
L 43.21875 35.40625 
Q 43.21875 41.609375 39.140625 45 
Q 35.0625 48.390625 27.6875 48.390625 
Q 23 48.390625 18.546875 47.265625 
Q 14.109375 46.140625 10.015625 43.890625 
L 10.015625 52.203125 
Q 14.9375 54.109375 19.578125 55.046875 
Q 24.21875 56 28.609375 56 
Q 40.484375 56 46.34375 49.84375 
Q 52.203125 43.703125 52.203125 31.203125 
z
" id="DejaVuSans-97"/>
      <path d="M 45.40625 46.390625 
L 45.40625 75.984375 
L 54.390625 75.984375 
L 54.390625 0 
L 45.40625 0 
L 45.40625 8.203125 
Q 42.578125 3.328125 38.25 0.953125 
Q 33.9375 -1.421875 27.875 -1.421875 
Q 17.96875 -1.421875 11.734375 6.484375 
Q 5.515625 14.40625 5.515625 27.296875 
Q 5.515625 40.1875 11.734375 48.09375 
Q 17.96875 56 27.875 56 
Q 33.9375 56 38.25 53.625 
Q 42.578125 51.265625 45.40625 46.390625 
z
M 14.796875 27.296875 
Q 14.796875 17.390625 18.875 11.75 
Q 22.953125 6.109375 30.078125 6.109375 
Q 37.203125 6.109375 41.296875 11.75 
Q 45.40625 17.390625 45.40625 27.296875 
Q 45.40625 37.203125 41.296875 42.84375 
Q 37.203125 48.484375 30.078125 48.484375 
Q 22.953125 48.484375 18.875 42.84375 
Q 14.796875 37.203125 14.796875 27.296875 
z
" id="DejaVuSans-100"/>
      <path d="M 2.984375 54.6875 
L 12.5 54.6875 
L 29.59375 8.796875 
L 46.6875 54.6875 
L 56.203125 54.6875 
L 35.6875 0 
L 23.484375 0 
z
" id="DejaVuSans-118"/>
      <path d="M 9.421875 54.6875 
L 18.40625 54.6875 
L 18.40625 0 
L 9.421875 0 
z
M 9.421875 75.984375 
L 18.40625 75.984375 
L 18.40625 64.59375 
L 9.421875 64.59375 
z
" id="DejaVuSans-105"/>
      <path d="M 30.609375 48.390625 
Q 23.390625 48.390625 19.1875 42.75 
Q 14.984375 37.109375 14.984375 27.296875 
Q 14.984375 17.484375 19.15625 11.84375 
Q 23.34375 6.203125 30.609375 6.203125 
Q 37.796875 6.203125 41.984375 11.859375 
Q 46.1875 17.53125 46.1875 27.296875 
Q 46.1875 37.015625 41.984375 42.703125 
Q 37.796875 48.390625 30.609375 48.390625 
z
M 30.609375 56 
Q 42.328125 56 49.015625 48.375 
Q 55.71875 40.765625 55.71875 27.296875 
Q 55.71875 13.875 49.015625 6.21875 
Q 42.328125 -1.421875 30.609375 -1.421875 
Q 18.84375 -1.421875 12.171875 6.21875 
Q 5.515625 13.875 5.515625 27.296875 
Q 5.515625 40.765625 12.171875 48.375 
Q 18.84375 56 30.609375 56 
z
" id="DejaVuSans-111"/>
     </defs>
     <g transform="translate(19.134375 130.896875)rotate(-90)scale(0.12 -0.12)">
      <use xlink:href="#DejaVuSans-83"/>
      <use x="63.476562" xlink:href="#DejaVuSans-116"/>
      <use x="102.685547" xlink:href="#DejaVuSans-97"/>
      <use x="163.964844" xlink:href="#DejaVuSans-110"/>
      <use x="227.34375" xlink:href="#DejaVuSans-100"/>
      <use x="290.820312" xlink:href="#DejaVuSans-97"/>
      <use x="352.099609" xlink:href="#DejaVuSans-114"/>
      <use x="393.197266" xlink:href="#DejaVuSans-100"/>
      <use x="456.673828" xlink:href="#DejaVuSans-32"/>
      <use x="488.460938" xlink:href="#DejaVuSans-100"/>
      <use x="551.9375" xlink:href="#DejaVuSans-101"/>
      <use x="613.460938" xlink:href="#DejaVuSans-118"/>
      <use x="672.640625" xlink:href="#DejaVuSans-105"/>
      <use x="700.423828" xlink:href="#DejaVuSans-97"/>
      <use x="761.703125" xlink:href="#DejaVuSans-116"/>
      <use x="800.912109" xlink:href="#DejaVuSans-105"/>
      <use x="828.695312" xlink:href="#DejaVuSans-111"/>
      <use x="889.876953" xlink:href="#DejaVuSans-110"/>
     </g>
    </g>
   </g>
   <g id="line2d_13">
    <path clip-path="url(#p77e2457310)" d="M 55.05 27.723616 
L 61.267391 60.68948 
L 67.484783 61.060469 
L 73.702174 77.78355 
L 79.919565 105.714987 
L 86.136957 116.999082 
L 92.354348 124.326421 
L 98.571739 125.092226 
L 104.78913 128.241875 
L 111.006522 128.674645 
L 117.223913 128.915057 
L 123.441304 129.042973 
L 129.658696 129.243 
L 135.876087 128.307659 
L 142.093478 126.995584 
L 148.31087 125.554596 
L 154.528261 124.843697 
L 160.745652 126.191568 
L 166.963043 126.867873 
L 173.180435 126.031335 
L 179.397826 126.581266 
L 185.615217 126.985382 
L 191.832609 127.334575 
L 198.05 125.459983 
" style="fill:none;stroke:#0000ff;stroke-dasharray:5.55,2.4;stroke-dashoffset:0;stroke-width:1.5;"/>
    <defs>
     <path d="M 0 1.5 
C 0.397805 1.5 0.77937 1.341951 1.06066 1.06066 
C 1.341951 0.77937 1.5 0.397805 1.5 0 
C 1.5 -0.397805 1.341951 -0.77937 1.06066 -1.06066 
C 0.77937 -1.341951 0.397805 -1.5 0 -1.5 
C -0.397805 -1.5 -0.77937 -1.341951 -1.06066 -1.06066 
C -1.341951 -0.77937 -1.5 -0.397805 -1.5 0 
C -1.5 0.397805 -1.341951 0.77937 -1.06066 1.06066 
C -0.77937 1.341951 -0.397805 1.5 0 1.5 
z
" id="m63d24e6e23" style="stroke:#0000ff;"/>
    </defs>
    <g clip-path="url(#p77e2457310)">
     <use style="fill:#0000ff;stroke:#0000ff;" x="55.05" xlink:href="#m63d24e6e23" y="27.723616"/>
     <use style="fill:#0000ff;stroke:#0000ff;" x="61.267391" xlink:href="#m63d24e6e23" y="60.68948"/>
     <use style="fill:#0000ff;stroke:#0000ff;" x="67.484783" xlink:href="#m63d24e6e23" y="61.060469"/>
     <use style="fill:#0000ff;stroke:#0000ff;" x="73.702174" xlink:href="#m63d24e6e23" y="77.78355"/>
     <use style="fill:#0000ff;stroke:#0000ff;" x="79.919565" xlink:href="#m63d24e6e23" y="105.714987"/>
     <use style="fill:#0000ff;stroke:#0000ff;" x="86.136957" xlink:href="#m63d24e6e23" y="116.999082"/>
     <use style="fill:#0000ff;stroke:#0000ff;" x="92.354348" xlink:href="#m63d24e6e23" y="124.326421"/>
     <use style="fill:#0000ff;stroke:#0000ff;" x="98.571739" xlink:href="#m63d24e6e23" y="125.092226"/>
     <use style="fill:#0000ff;stroke:#0000ff;" x="104.78913" xlink:href="#m63d24e6e23" y="128.241875"/>
     <use style="fill:#0000ff;stroke:#0000ff;" x="111.006522" xlink:href="#m63d24e6e23" y="128.674645"/>
     <use style="fill:#0000ff;stroke:#0000ff;" x="117.223913" xlink:href="#m63d24e6e23" y="128.915057"/>
     <use style="fill:#0000ff;stroke:#0000ff;" x="123.441304" xlink:href="#m63d24e6e23" y="129.042973"/>
     <use style="fill:#0000ff;stroke:#0000ff;" x="129.658696" xlink:href="#m63d24e6e23" y="129.243"/>
     <use style="fill:#0000ff;stroke:#0000ff;" x="135.876087" xlink:href="#m63d24e6e23" y="128.307659"/>
     <use style="fill:#0000ff;stroke:#0000ff;" x="142.093478" xlink:href="#m63d24e6e23" y="126.995584"/>
     <use style="fill:#0000ff;stroke:#0000ff;" x="148.31087" xlink:href="#m63d24e6e23" y="125.554596"/>
     <use style="fill:#0000ff;stroke:#0000ff;" x="154.528261" xlink:href="#m63d24e6e23" y="124.843697"/>
     <use style="fill:#0000ff;stroke:#0000ff;" x="160.745652" xlink:href="#m63d24e6e23" y="126.191568"/>
     <use style="fill:#0000ff;stroke:#0000ff;" x="166.963043" xlink:href="#m63d24e6e23" y="126.867873"/>
     <use style="fill:#0000ff;stroke:#0000ff;" x="173.180435" xlink:href="#m63d24e6e23" y="126.031335"/>
     <use style="fill:#0000ff;stroke:#0000ff;" x="179.397826" xlink:href="#m63d24e6e23" y="126.581266"/>
     <use style="fill:#0000ff;stroke:#0000ff;" x="185.615217" xlink:href="#m63d24e6e23" y="126.985382"/>
     <use style="fill:#0000ff;stroke:#0000ff;" x="191.832609" xlink:href="#m63d24e6e23" y="127.334575"/>
     <use style="fill:#0000ff;stroke:#0000ff;" x="198.05" xlink:href="#m63d24e6e23" y="125.459983"/>
    </g>
   </g>
   <g id="line2d_14">
    <path clip-path="url(#p77e2457310)" d="M 55.05 16.518182 
L 61.267391 66.850926 
L 67.484783 77.496704 
L 73.702174 86.405473 
L 79.919565 107.984737 
L 86.136957 120.291758 
L 92.354348 124.94077 
L 98.571739 126.982898 
L 104.78913 127.668227 
L 111.006522 128.286589 
L 117.223913 129.067175 
L 123.441304 128.848291 
L 129.658696 128.248686 
L 135.876087 127.532546 
L 142.093478 127.35501 
L 148.31087 126.503081 
L 154.528261 125.241569 
L 160.745652 125.612157 
L 166.963043 126.669605 
L 173.180435 127.470887 
L 179.397826 128.056365 
L 185.615217 128.536087 
L 191.832609 128.903047 
L 198.05 127.829865 
" style="fill:none;stroke:#ff0000;stroke-dasharray:5.55,2.4;stroke-dashoffset:0;stroke-width:1.5;"/>
    <defs>
     <path d="M 0 1.5 
C 0.397805 1.5 0.77937 1.341951 1.06066 1.06066 
C 1.341951 0.77937 1.5 0.397805 1.5 0 
C 1.5 -0.397805 1.341951 -0.77937 1.06066 -1.06066 
C 0.77937 -1.341951 0.397805 -1.5 0 -1.5 
C -0.397805 -1.5 -0.77937 -1.341951 -1.06066 -1.06066 
C -1.341951 -0.77937 -1.5 -0.397805 -1.5 0 
C -1.5 0.397805 -1.341951 0.77937 -1.06066 1.06066 
C -0.77937 1.341951 -0.397805 1.5 0 1.5 
z
" id="me8366f3a90" style="stroke:#ff0000;"/>
    </defs>
    <g clip-path="url(#p77e2457310)">
     <use style="fill:#ff0000;stroke:#ff0000;" x="55.05" xlink:href="#me8366f3a90" y="16.518182"/>
     <use style="fill:#ff0000;stroke:#ff0000;" x="61.267391" xlink:href="#me8366f3a90" y="66.850926"/>
     <use style="fill:#ff0000;stroke:#ff0000;" x="67.484783" xlink:href="#me8366f3a90" y="77.496704"/>
     <use style="fill:#ff0000;stroke:#ff0000;" x="73.702174" xlink:href="#me8366f3a90" y="86.405473"/>
     <use style="fill:#ff0000;stroke:#ff0000;" x="79.919565" xlink:href="#me8366f3a90" y="107.984737"/>
     <use style="fill:#ff0000;stroke:#ff0000;" x="86.136957" xlink:href="#me8366f3a90" y="120.291758"/>
     <use style="fill:#ff0000;stroke:#ff0000;" x="92.354348" xlink:href="#me8366f3a90" y="124.94077"/>
     <use style="fill:#ff0000;stroke:#ff0000;" x="98.571739" xlink:href="#me8366f3a90" y="126.982898"/>
     <use style="fill:#ff0000;stroke:#ff0000;" x="104.78913" xlink:href="#me8366f3a90" y="127.668227"/>
     <use style="fill:#ff0000;stroke:#ff0000;" x="111.006522" xlink:href="#me8366f3a90" y="128.286589"/>
     <use style="fill:#ff0000;stroke:#ff0000;" x="117.223913" xlink:href="#me8366f3a90" y="129.067175"/>
     <use style="fill:#ff0000;stroke:#ff0000;" x="123.441304" xlink:href="#me8366f3a90" y="128.848291"/>
     <use style="fill:#ff0000;stroke:#ff0000;" x="129.658696" xlink:href="#me8366f3a90" y="128.248686"/>
     <use style="fill:#ff0000;stroke:#ff0000;" x="135.876087" xlink:href="#me8366f3a90" y="127.532546"/>
     <use style="fill:#ff0000;stroke:#ff0000;" x="142.093478" xlink:href="#me8366f3a90" y="127.35501"/>
     <use style="fill:#ff0000;stroke:#ff0000;" x="148.31087" xlink:href="#me8366f3a90" y="126.503081"/>
     <use style="fill:#ff0000;stroke:#ff0000;" x="154.528261" xlink:href="#me8366f3a90" y="125.241569"/>
     <use style="fill:#ff0000;stroke:#ff0000;" x="160.745652" xlink:href="#me8366f3a90" y="125.612157"/>
     <use style="fill:#ff0000;stroke:#ff0000;" x="166.963043" xlink:href="#me8366f3a90" y="126.669605"/>
     <use style="fill:#ff0000;stroke:#ff0000;" x="173.180435" xlink:href="#me8366f3a90" y="127.470887"/>
     <use style="fill:#ff0000;stroke:#ff0000;" x="179.397826" xlink:href="#me8366f3a90" y="128.056365"/>
     <use style="fill:#ff0000;stroke:#ff0000;" x="185.615217" xlink:href="#me8366f3a90" y="128.536087"/>
     <use style="fill:#ff0000;stroke:#ff0000;" x="191.832609" xlink:href="#me8366f3a90" y="128.903047"/>
     <use style="fill:#ff0000;stroke:#ff0000;" x="198.05" xlink:href="#me8366f3a90" y="127.829865"/>
    </g>
   </g>
   <g id="line2d_15">
    <path clip-path="url(#p77e2457310)" d="M 55.05 93.642623 
L 61.267391 115.476593 
L 67.484783 124.31006 
L 73.702174 123.044596 
L 79.919565 125.788405 
L 86.136957 128.437674 
L 92.354348 128.209388 
L 98.571739 128.921318 
L 104.78913 129.40536 
L 111.006522 130.166997 
L 117.223913 130.437218 
L 123.441304 129.772812 
L 129.658696 129.433599 
L 135.876087 129.696292 
L 142.093478 130.567786 
L 148.31087 130.881818 
L 154.528261 130.548885 
L 160.745652 129.937636 
L 166.963043 129.735269 
L 173.180435 130.030044 
L 179.397826 130.155149 
L 185.615217 130.448378 
L 191.832609 130.630842 
L 198.05 129.158121 
" style="fill:none;stroke:#000000;stroke-dasharray:5.55,2.4;stroke-dashoffset:0;stroke-width:1.5;"/>
    <defs>
     <path d="M 0 1.5 
C 0.397805 1.5 0.77937 1.341951 1.06066 1.06066 
C 1.341951 0.77937 1.5 0.397805 1.5 0 
C 1.5 -0.397805 1.341951 -0.77937 1.06066 -1.06066 
C 0.77937 -1.341951 0.397805 -1.5 0 -1.5 
C -0.397805 -1.5 -0.77937 -1.341951 -1.06066 -1.06066 
C -1.341951 -0.77937 -1.5 -0.397805 -1.5 0 
C -1.5 0.397805 -1.341951 0.77937 -1.06066 1.06066 
C -0.77937 1.341951 -0.397805 1.5 0 1.5 
z
" id="mc367d51fbb" style="stroke:#000000;"/>
    </defs>
    <g clip-path="url(#p77e2457310)">
     <use style="stroke:#000000;" x="55.05" xlink:href="#mc367d51fbb" y="93.642623"/>
     <use style="stroke:#000000;" x="61.267391" xlink:href="#mc367d51fbb" y="115.476593"/>
     <use style="stroke:#000000;" x="67.484783" xlink:href="#mc367d51fbb" y="124.31006"/>
     <use style="stroke:#000000;" x="73.702174" xlink:href="#mc367d51fbb" y="123.044596"/>
     <use style="stroke:#000000;" x="79.919565" xlink:href="#mc367d51fbb" y="125.788405"/>
     <use style="stroke:#000000;" x="86.136957" xlink:href="#mc367d51fbb" y="128.437674"/>
     <use style="stroke:#000000;" x="92.354348" xlink:href="#mc367d51fbb" y="128.209388"/>
     <use style="stroke:#000000;" x="98.571739" xlink:href="#mc367d51fbb" y="128.921318"/>
     <use style="stroke:#000000;" x="104.78913" xlink:href="#mc367d51fbb" y="129.40536"/>
     <use style="stroke:#000000;" x="111.006522" xlink:href="#mc367d51fbb" y="130.166997"/>
     <use style="stroke:#000000;" x="117.223913" xlink:href="#mc367d51fbb" y="130.437218"/>
     <use style="stroke:#000000;" x="123.441304" xlink:href="#mc367d51fbb" y="129.772812"/>
     <use style="stroke:#000000;" x="129.658696" xlink:href="#mc367d51fbb" y="129.433599"/>
     <use style="stroke:#000000;" x="135.876087" xlink:href="#mc367d51fbb" y="129.696292"/>
     <use style="stroke:#000000;" x="142.093478" xlink:href="#mc367d51fbb" y="130.567786"/>
     <use style="stroke:#000000;" x="148.31087" xlink:href="#mc367d51fbb" y="130.881818"/>
     <use style="stroke:#000000;" x="154.528261" xlink:href="#mc367d51fbb" y="130.548885"/>
     <use style="stroke:#000000;" x="160.745652" xlink:href="#mc367d51fbb" y="129.937636"/>
     <use style="stroke:#000000;" x="166.963043" xlink:href="#mc367d51fbb" y="129.735269"/>
     <use style="stroke:#000000;" x="173.180435" xlink:href="#mc367d51fbb" y="130.030044"/>
     <use style="stroke:#000000;" x="179.397826" xlink:href="#mc367d51fbb" y="130.155149"/>
     <use style="stroke:#000000;" x="185.615217" xlink:href="#mc367d51fbb" y="130.448378"/>
     <use style="stroke:#000000;" x="191.832609" xlink:href="#mc367d51fbb" y="130.630842"/>
     <use style="stroke:#000000;" x="198.05" xlink:href="#mc367d51fbb" y="129.158121"/>
    </g>
   </g>
   <g id="patch_3">
    <path d="M 47.9 136.6 
L 47.9 10.8 
" style="fill:none;stroke:#000000;stroke-linecap:square;stroke-linejoin:miter;stroke-width:0.8;"/>
   </g>
   <g id="patch_4">
    <path d="M 205.2 136.6 
L 205.2 10.8 
" style="fill:none;stroke:#000000;stroke-linecap:square;stroke-linejoin:miter;stroke-width:0.8;"/>
   </g>
   <g id="patch_5">
    <path d="M 47.9 136.6 
L 205.2 136.6 
" style="fill:none;stroke:#000000;stroke-linecap:square;stroke-linejoin:miter;stroke-width:0.8;"/>
   </g>
   <g id="patch_6">
    <path d="M 47.9 10.8 
L 205.2 10.8 
" style="fill:none;stroke:#000000;stroke-linecap:square;stroke-linejoin:miter;stroke-width:0.8;"/>
   </g>
  </g>
 </g>
 <defs>
  <clipPath id="p77e2457310">
   <rect height="125.8" width="157.3" x="47.9" y="10.8"/>
  </clipPath>
 </defs>
</svg>
