<?xml version="1.0" encoding="utf-8" standalone="no"?>
<!DOCTYPE svg PUBLIC "-//W3C//DTD SVG 1.1//EN"
  "http://www.w3.org/Graphics/SVG/1.1/DTD/svg11.dtd">
<!-- Created with matplotlib (https://matplotlib.org/) -->
<svg height="180pt" version="1.1" viewBox="0 0 216 180" width="216pt" xmlns="http://www.w3.org/2000/svg" xmlns:xlink="http://www.w3.org/1999/xlink">
 <defs>
  <style type="text/css">
*{stroke-linecap:butt;stroke-linejoin:round;}
  </style>
 </defs>
 <g id="figure_1">
  <g id="patch_1">
   <path d="M 0 180 
L 216 180 
L 216 0 
L 0 0 
z
" style="fill:#ffffff;"/>
  </g>
  <g id="axes_1">
   <g id="patch_2">
    <path d="M 54.237331 136.6 
L 202.579738 136.6 
L 202.579738 10.8 
L 54.237331 10.8 
z
" style="fill:#ffffff;"/>
   </g>
   <g id="matplotlib.axis_1">
    <g id="xtick_1">
     <g id="line2d_1">
      <path clip-path="url(#p02d07be7a2)" d="M 60.980167 136.6 
L 60.980167 10.8 
" style="fill:none;stroke:#b0b0b0;stroke-linecap:square;stroke-width:0.8;"/>
     </g>
     <g id="line2d_2">
      <defs>
       <path d="M 0 0 
L 0 3.5 
" id="mf54f50eac8" style="stroke:#000000;stroke-width:0.8;"/>
      </defs>
      <g>
       <use style="stroke:#000000;stroke-width:0.8;" x="60.980167" xlink:href="#mf54f50eac8" y="136.6"/>
      </g>
     </g>
     <g id="text_1">
      <!-- 0 -->
      <defs>
       <path d="M 31.78125 66.40625 
Q 24.171875 66.40625 20.328125 58.90625 
Q 16.5 51.421875 16.5 36.375 
Q 16.5 21.390625 20.328125 13.890625 
Q 24.171875 6.390625 31.78125 6.390625 
Q 39.453125 6.390625 43.28125 13.890625 
Q 47.125 21.390625 47.125 36.375 
Q 47.125 51.421875 43.28125 58.90625 
Q 39.453125 66.40625 31.78125 66.40625 
z
M 31.78125 74.21875 
Q 44.046875 74.21875 50.515625 64.515625 
Q 56.984375 54.828125 56.984375 36.375 
Q 56.984375 17.96875 50.515625 8.265625 
Q 44.046875 -1.421875 31.78125 -1.421875 
Q 19.53125 -1.421875 13.0625 8.265625 
Q 6.59375 17.96875 6.59375 36.375 
Q 6.59375 54.828125 13.0625 64.515625 
Q 19.53125 74.21875 31.78125 74.21875 
z
" id="DejaVuSans-48"/>
      </defs>
      <g transform="translate(57.162667 152.718125)scale(0.12 -0.12)">
       <use xlink:href="#DejaVuSans-48"/>
      </g>
     </g>
    </g>
    <g id="xtick_2">
     <g id="line2d_3">
      <path clip-path="url(#p02d07be7a2)" d="M 106.694314 136.6 
L 106.694314 10.8 
" style="fill:none;stroke:#b0b0b0;stroke-linecap:square;stroke-width:0.8;"/>
     </g>
     <g id="line2d_4">
      <g>
       <use style="stroke:#000000;stroke-width:0.8;" x="106.694314" xlink:href="#mf54f50eac8" y="136.6"/>
      </g>
     </g>
     <g id="text_2">
      <!-- 20 -->
      <defs>
       <path d="M 19.1875 8.296875 
L 53.609375 8.296875 
L 53.609375 0 
L 7.328125 0 
L 7.328125 8.296875 
Q 12.9375 14.109375 22.625 23.890625 
Q 32.328125 33.6875 34.8125 36.53125 
Q 39.546875 41.84375 41.421875 45.53125 
Q 43.3125 49.21875 43.3125 52.78125 
Q 43.3125 58.59375 39.234375 62.25 
Q 35.15625 65.921875 28.609375 65.921875 
Q 23.96875 65.921875 18.8125 64.3125 
Q 13.671875 62.703125 7.8125 59.421875 
L 7.8125 69.390625 
Q 13.765625 71.78125 18.9375 73 
Q 24.125 74.21875 28.421875 74.21875 
Q 39.75 74.21875 46.484375 68.546875 
Q 53.21875 62.890625 53.21875 53.421875 
Q 53.21875 48.921875 51.53125 44.890625 
Q 49.859375 40.875 45.40625 35.40625 
Q 44.1875 33.984375 37.640625 27.21875 
Q 31.109375 20.453125 19.1875 8.296875 
z
" id="DejaVuSans-50"/>
      </defs>
      <g transform="translate(99.059314 152.718125)scale(0.12 -0.12)">
       <use xlink:href="#DejaVuSans-50"/>
       <use x="63.623047" xlink:href="#DejaVuSans-48"/>
      </g>
     </g>
    </g>
    <g id="xtick_3">
     <g id="line2d_5">
      <path clip-path="url(#p02d07be7a2)" d="M 152.408462 136.6 
L 152.408462 10.8 
" style="fill:none;stroke:#b0b0b0;stroke-linecap:square;stroke-width:0.8;"/>
     </g>
     <g id="line2d_6">
      <g>
       <use style="stroke:#000000;stroke-width:0.8;" x="152.408462" xlink:href="#mf54f50eac8" y="136.6"/>
      </g>
     </g>
     <g id="text_3">
      <!-- 40 -->
      <defs>
       <path d="M 37.796875 64.3125 
L 12.890625 25.390625 
L 37.796875 25.390625 
z
M 35.203125 72.90625 
L 47.609375 72.90625 
L 47.609375 25.390625 
L 58.015625 25.390625 
L 58.015625 17.1875 
L 47.609375 17.1875 
L 47.609375 0 
L 37.796875 0 
L 37.796875 17.1875 
L 4.890625 17.1875 
L 4.890625 26.703125 
z
" id="DejaVuSans-52"/>
      </defs>
      <g transform="translate(144.773462 152.718125)scale(0.12 -0.12)">
       <use xlink:href="#DejaVuSans-52"/>
       <use x="63.623047" xlink:href="#DejaVuSans-48"/>
      </g>
     </g>
    </g>
    <g id="xtick_4">
     <g id="line2d_7">
      <path clip-path="url(#p02d07be7a2)" d="M 198.122609 136.6 
L 198.122609 10.8 
" style="fill:none;stroke:#b0b0b0;stroke-linecap:square;stroke-width:0.8;"/>
     </g>
     <g id="line2d_8">
      <g>
       <use style="stroke:#000000;stroke-width:0.8;" x="198.122609" xlink:href="#mf54f50eac8" y="136.6"/>
      </g>
     </g>
     <g id="text_4">
      <!-- 60 -->
      <defs>
       <path d="M 33.015625 40.375 
Q 26.375 40.375 22.484375 35.828125 
Q 18.609375 31.296875 18.609375 23.390625 
Q 18.609375 15.53125 22.484375 10.953125 
Q 26.375 6.390625 33.015625 6.390625 
Q 39.65625 6.390625 43.53125 10.953125 
Q 47.40625 15.53125 47.40625 23.390625 
Q 47.40625 31.296875 43.53125 35.828125 
Q 39.65625 40.375 33.015625 40.375 
z
M 52.59375 71.296875 
L 52.59375 62.3125 
Q 48.875 64.0625 45.09375 64.984375 
Q 41.3125 65.921875 37.59375 65.921875 
Q 27.828125 65.921875 22.671875 59.328125 
Q 17.53125 52.734375 16.796875 39.40625 
Q 19.671875 43.65625 24.015625 45.921875 
Q 28.375 48.1875 33.59375 48.1875 
Q 44.578125 48.1875 50.953125 41.515625 
Q 57.328125 34.859375 57.328125 23.390625 
Q 57.328125 12.15625 50.6875 5.359375 
Q 44.046875 -1.421875 33.015625 -1.421875 
Q 20.359375 -1.421875 13.671875 8.265625 
Q 6.984375 17.96875 6.984375 36.375 
Q 6.984375 53.65625 15.1875 63.9375 
Q 23.390625 74.21875 37.203125 74.21875 
Q 40.921875 74.21875 44.703125 73.484375 
Q 48.484375 72.75 52.59375 71.296875 
z
" id="DejaVuSans-54"/>
      </defs>
      <g transform="translate(190.487609 152.718125)scale(0.12 -0.12)">
       <use xlink:href="#DejaVuSans-54"/>
       <use x="63.623047" xlink:href="#DejaVuSans-48"/>
      </g>
     </g>
    </g>
    <g id="text_5">
     <!-- # of vehicles -->
     <defs>
      <path d="M 51.125 44 
L 36.921875 44 
L 32.8125 27.6875 
L 47.125 27.6875 
z
M 43.796875 71.78125 
L 38.71875 51.515625 
L 52.984375 51.515625 
L 58.109375 71.78125 
L 65.921875 71.78125 
L 60.890625 51.515625 
L 76.125 51.515625 
L 76.125 44 
L 58.984375 44 
L 54.984375 27.6875 
L 70.515625 27.6875 
L 70.515625 20.21875 
L 53.078125 20.21875 
L 48 0 
L 40.1875 0 
L 45.21875 20.21875 
L 30.90625 20.21875 
L 25.875 0 
L 18.015625 0 
L 23.09375 20.21875 
L 7.71875 20.21875 
L 7.71875 27.6875 
L 24.90625 27.6875 
L 29 44 
L 13.28125 44 
L 13.28125 51.515625 
L 30.90625 51.515625 
L 35.890625 71.78125 
z
" id="DejaVuSans-35"/>
      <path id="DejaVuSans-32"/>
      <path d="M 30.609375 48.390625 
Q 23.390625 48.390625 19.1875 42.75 
Q 14.984375 37.109375 14.984375 27.296875 
Q 14.984375 17.484375 19.15625 11.84375 
Q 23.34375 6.203125 30.609375 6.203125 
Q 37.796875 6.203125 41.984375 11.859375 
Q 46.1875 17.53125 46.1875 27.296875 
Q 46.1875 37.015625 41.984375 42.703125 
Q 37.796875 48.390625 30.609375 48.390625 
z
M 30.609375 56 
Q 42.328125 56 49.015625 48.375 
Q 55.71875 40.765625 55.71875 27.296875 
Q 55.71875 13.875 49.015625 6.21875 
Q 42.328125 -1.421875 30.609375 -1.421875 
Q 18.84375 -1.421875 12.171875 6.21875 
Q 5.515625 13.875 5.515625 27.296875 
Q 5.515625 40.765625 12.171875 48.375 
Q 18.84375 56 30.609375 56 
z
" id="DejaVuSans-111"/>
      <path d="M 37.109375 75.984375 
L 37.109375 68.5 
L 28.515625 68.5 
Q 23.6875 68.5 21.796875 66.546875 
Q 19.921875 64.59375 19.921875 59.515625 
L 19.921875 54.6875 
L 34.71875 54.6875 
L 34.71875 47.703125 
L 19.921875 47.703125 
L 19.921875 0 
L 10.890625 0 
L 10.890625 47.703125 
L 2.296875 47.703125 
L 2.296875 54.6875 
L 10.890625 54.6875 
L 10.890625 58.5 
Q 10.890625 67.625 15.140625 71.796875 
Q 19.390625 75.984375 28.609375 75.984375 
z
" id="DejaVuSans-102"/>
      <path d="M 2.984375 54.6875 
L 12.5 54.6875 
L 29.59375 8.796875 
L 46.6875 54.6875 
L 56.203125 54.6875 
L 35.6875 0 
L 23.484375 0 
z
" id="DejaVuSans-118"/>
      <path d="M 56.203125 29.59375 
L 56.203125 25.203125 
L 14.890625 25.203125 
Q 15.484375 15.921875 20.484375 11.0625 
Q 25.484375 6.203125 34.421875 6.203125 
Q 39.59375 6.203125 44.453125 7.46875 
Q 49.3125 8.734375 54.109375 11.28125 
L 54.109375 2.78125 
Q 49.265625 0.734375 44.1875 -0.34375 
Q 39.109375 -1.421875 33.890625 -1.421875 
Q 20.796875 -1.421875 13.15625 6.1875 
Q 5.515625 13.8125 5.515625 26.8125 
Q 5.515625 40.234375 12.765625 48.109375 
Q 20.015625 56 32.328125 56 
Q 43.359375 56 49.78125 48.890625 
Q 56.203125 41.796875 56.203125 29.59375 
z
M 47.21875 32.234375 
Q 47.125 39.59375 43.09375 43.984375 
Q 39.0625 48.390625 32.421875 48.390625 
Q 24.90625 48.390625 20.390625 44.140625 
Q 15.875 39.890625 15.1875 32.171875 
z
" id="DejaVuSans-101"/>
      <path d="M 54.890625 33.015625 
L 54.890625 0 
L 45.90625 0 
L 45.90625 32.71875 
Q 45.90625 40.484375 42.875 44.328125 
Q 39.84375 48.1875 33.796875 48.1875 
Q 26.515625 48.1875 22.3125 43.546875 
Q 18.109375 38.921875 18.109375 30.90625 
L 18.109375 0 
L 9.078125 0 
L 9.078125 75.984375 
L 18.109375 75.984375 
L 18.109375 46.1875 
Q 21.34375 51.125 25.703125 53.5625 
Q 30.078125 56 35.796875 56 
Q 45.21875 56 50.046875 50.171875 
Q 54.890625 44.34375 54.890625 33.015625 
z
" id="DejaVuSans-104"/>
      <path d="M 9.421875 54.6875 
L 18.40625 54.6875 
L 18.40625 0 
L 9.421875 0 
z
M 9.421875 75.984375 
L 18.40625 75.984375 
L 18.40625 64.59375 
L 9.421875 64.59375 
z
" id="DejaVuSans-105"/>
      <path d="M 48.78125 52.59375 
L 48.78125 44.1875 
Q 44.96875 46.296875 41.140625 47.34375 
Q 37.3125 48.390625 33.40625 48.390625 
Q 24.65625 48.390625 19.8125 42.84375 
Q 14.984375 37.3125 14.984375 27.296875 
Q 14.984375 17.28125 19.8125 11.734375 
Q 24.65625 6.203125 33.40625 6.203125 
Q 37.3125 6.203125 41.140625 7.25 
Q 44.96875 8.296875 48.78125 10.40625 
L 48.78125 2.09375 
Q 45.015625 0.34375 40.984375 -0.53125 
Q 36.96875 -1.421875 32.421875 -1.421875 
Q 20.0625 -1.421875 12.78125 6.34375 
Q 5.515625 14.109375 5.515625 27.296875 
Q 5.515625 40.671875 12.859375 48.328125 
Q 20.21875 56 33.015625 56 
Q 37.15625 56 41.109375 55.140625 
Q 45.0625 54.296875 48.78125 52.59375 
z
" id="DejaVuSans-99"/>
      <path d="M 9.421875 75.984375 
L 18.40625 75.984375 
L 18.40625 0 
L 9.421875 0 
z
" id="DejaVuSans-108"/>
      <path d="M 44.28125 53.078125 
L 44.28125 44.578125 
Q 40.484375 46.53125 36.375 47.5 
Q 32.28125 48.484375 27.875 48.484375 
Q 21.1875 48.484375 17.84375 46.4375 
Q 14.5 44.390625 14.5 40.28125 
Q 14.5 37.15625 16.890625 35.375 
Q 19.28125 33.59375 26.515625 31.984375 
L 29.59375 31.296875 
Q 39.15625 29.25 43.1875 25.515625 
Q 47.21875 21.78125 47.21875 15.09375 
Q 47.21875 7.46875 41.1875 3.015625 
Q 35.15625 -1.421875 24.609375 -1.421875 
Q 20.21875 -1.421875 15.453125 -0.5625 
Q 10.6875 0.296875 5.421875 2 
L 5.421875 11.28125 
Q 10.40625 8.6875 15.234375 7.390625 
Q 20.0625 6.109375 24.8125 6.109375 
Q 31.15625 6.109375 34.5625 8.28125 
Q 37.984375 10.453125 37.984375 14.40625 
Q 37.984375 18.0625 35.515625 20.015625 
Q 33.0625 21.96875 24.703125 23.78125 
L 21.578125 24.515625 
Q 13.234375 26.265625 9.515625 29.90625 
Q 5.8125 33.546875 5.8125 39.890625 
Q 5.8125 47.609375 11.28125 51.796875 
Q 16.75 56 26.8125 56 
Q 31.78125 56 36.171875 55.265625 
Q 40.578125 54.546875 44.28125 53.078125 
z
" id="DejaVuSans-115"/>
     </defs>
     <g transform="translate(89.287597 168.331875)scale(0.12 -0.12)">
      <use xlink:href="#DejaVuSans-35"/>
      <use x="83.789062" xlink:href="#DejaVuSans-32"/>
      <use x="115.576172" xlink:href="#DejaVuSans-111"/>
      <use x="176.757812" xlink:href="#DejaVuSans-102"/>
      <use x="211.962891" xlink:href="#DejaVuSans-32"/>
      <use x="243.75" xlink:href="#DejaVuSans-118"/>
      <use x="302.929688" xlink:href="#DejaVuSans-101"/>
      <use x="364.453125" xlink:href="#DejaVuSans-104"/>
      <use x="427.832031" xlink:href="#DejaVuSans-105"/>
      <use x="455.615234" xlink:href="#DejaVuSans-99"/>
      <use x="510.595703" xlink:href="#DejaVuSans-108"/>
      <use x="538.378906" xlink:href="#DejaVuSans-101"/>
      <use x="599.902344" xlink:href="#DejaVuSans-115"/>
     </g>
    </g>
   </g>
   <g id="matplotlib.axis_2">
    <g id="ytick_1">
     <g id="line2d_9">
      <path clip-path="url(#p02d07be7a2)" d="M 54.237331 95.47197 
L 202.579738 95.47197 
" style="fill:none;stroke:#b0b0b0;stroke-linecap:square;stroke-width:0.8;"/>
     </g>
     <g id="line2d_10">
      <defs>
       <path d="M 0 0 
L -3.5 0 
" id="m10349aac5c" style="stroke:#000000;stroke-width:0.8;"/>
      </defs>
      <g>
       <use style="stroke:#000000;stroke-width:0.8;" x="54.237331" xlink:href="#m10349aac5c" y="95.47197"/>
      </g>
     </g>
     <g id="text_6">
      <!-- $\mathdefault{10^{3}}$ -->
      <defs>
       <path d="M 12.40625 8.296875 
L 28.515625 8.296875 
L 28.515625 63.921875 
L 10.984375 60.40625 
L 10.984375 69.390625 
L 28.421875 72.90625 
L 38.28125 72.90625 
L 38.28125 8.296875 
L 54.390625 8.296875 
L 54.390625 0 
L 12.40625 0 
z
" id="DejaVuSans-49"/>
       <path d="M 40.578125 39.3125 
Q 47.65625 37.796875 51.625 33 
Q 55.609375 28.21875 55.609375 21.1875 
Q 55.609375 10.40625 48.1875 4.484375 
Q 40.765625 -1.421875 27.09375 -1.421875 
Q 22.515625 -1.421875 17.65625 -0.515625 
Q 12.796875 0.390625 7.625 2.203125 
L 7.625 11.71875 
Q 11.71875 9.328125 16.59375 8.109375 
Q 21.484375 6.890625 26.8125 6.890625 
Q 36.078125 6.890625 40.9375 10.546875 
Q 45.796875 14.203125 45.796875 21.1875 
Q 45.796875 27.640625 41.28125 31.265625 
Q 36.765625 34.90625 28.71875 34.90625 
L 20.21875 34.90625 
L 20.21875 43.015625 
L 29.109375 43.015625 
Q 36.375 43.015625 40.234375 45.921875 
Q 44.09375 48.828125 44.09375 54.296875 
Q 44.09375 59.90625 40.109375 62.90625 
Q 36.140625 65.921875 28.71875 65.921875 
Q 24.65625 65.921875 20.015625 65.03125 
Q 15.375 64.15625 9.8125 62.3125 
L 9.8125 71.09375 
Q 15.4375 72.65625 20.34375 73.4375 
Q 25.25 74.21875 29.59375 74.21875 
Q 40.828125 74.21875 47.359375 69.109375 
Q 53.90625 64.015625 53.90625 55.328125 
Q 53.90625 49.265625 50.4375 45.09375 
Q 46.96875 40.921875 40.578125 39.3125 
z
" id="DejaVuSans-51"/>
      </defs>
      <g transform="translate(26.117331 100.031033)scale(0.12 -0.12)">
       <use transform="translate(0 0.765625)" xlink:href="#DejaVuSans-49"/>
       <use transform="translate(63.623047 0.765625)" xlink:href="#DejaVuSans-48"/>
       <use transform="translate(128.203125 39.046875)scale(0.7)" xlink:href="#DejaVuSans-51"/>
      </g>
     </g>
    </g>
    <g id="ytick_2">
     <g id="line2d_11">
      <path clip-path="url(#p02d07be7a2)" d="M 54.237331 35.150964 
L 202.579738 35.150964 
" style="fill:none;stroke:#b0b0b0;stroke-linecap:square;stroke-width:0.8;"/>
     </g>
     <g id="line2d_12">
      <g>
       <use style="stroke:#000000;stroke-width:0.8;" x="54.237331" xlink:href="#m10349aac5c" y="35.150964"/>
      </g>
     </g>
     <g id="text_7">
      <!-- $\mathdefault{10^{4}}$ -->
      <g transform="translate(26.117331 39.710027)scale(0.12 -0.12)">
       <use transform="translate(0 0.684375)" xlink:href="#DejaVuSans-49"/>
       <use transform="translate(63.623047 0.684375)" xlink:href="#DejaVuSans-48"/>
       <use transform="translate(128.203125 38.965625)scale(0.7)" xlink:href="#DejaVuSans-52"/>
      </g>
     </g>
    </g>
    <g id="ytick_3">
     <g id="line2d_13">
      <defs>
       <path d="M 0 0 
L -2 0 
" id="m3777e1986b" style="stroke:#000000;stroke-width:0.6;"/>
      </defs>
      <g>
       <use style="stroke:#000000;stroke-width:0.6;" x="54.237331" xlink:href="#m3777e1986b" y="127.012542"/>
      </g>
     </g>
    </g>
    <g id="ytick_4">
     <g id="line2d_14">
      <g>
       <use style="stroke:#000000;stroke-width:0.6;" x="54.237331" xlink:href="#m3777e1986b" y="119.476112"/>
      </g>
     </g>
    </g>
    <g id="ytick_5">
     <g id="line2d_15">
      <g>
       <use style="stroke:#000000;stroke-width:0.6;" x="54.237331" xlink:href="#m3777e1986b" y="113.630402"/>
      </g>
     </g>
    </g>
    <g id="ytick_6">
     <g id="line2d_16">
      <g>
       <use style="stroke:#000000;stroke-width:0.6;" x="54.237331" xlink:href="#m3777e1986b" y="108.85411"/>
      </g>
     </g>
    </g>
    <g id="ytick_7">
     <g id="line2d_17">
      <g>
       <use style="stroke:#000000;stroke-width:0.6;" x="54.237331" xlink:href="#m3777e1986b" y="104.815812"/>
      </g>
     </g>
    </g>
    <g id="ytick_8">
     <g id="line2d_18">
      <g>
       <use style="stroke:#000000;stroke-width:0.6;" x="54.237331" xlink:href="#m3777e1986b" y="101.31768"/>
      </g>
     </g>
    </g>
    <g id="ytick_9">
     <g id="line2d_19">
      <g>
       <use style="stroke:#000000;stroke-width:0.6;" x="54.237331" xlink:href="#m3777e1986b" y="98.232108"/>
      </g>
     </g>
    </g>
    <g id="ytick_10">
     <g id="line2d_20">
      <g>
       <use style="stroke:#000000;stroke-width:0.6;" x="54.237331" xlink:href="#m3777e1986b" y="77.313538"/>
      </g>
     </g>
    </g>
    <g id="ytick_11">
     <g id="line2d_21">
      <g>
       <use style="stroke:#000000;stroke-width:0.6;" x="54.237331" xlink:href="#m3777e1986b" y="66.691536"/>
      </g>
     </g>
    </g>
    <g id="ytick_12">
     <g id="line2d_22">
      <g>
       <use style="stroke:#000000;stroke-width:0.6;" x="54.237331" xlink:href="#m3777e1986b" y="59.155106"/>
      </g>
     </g>
    </g>
    <g id="ytick_13">
     <g id="line2d_23">
      <g>
       <use style="stroke:#000000;stroke-width:0.6;" x="54.237331" xlink:href="#m3777e1986b" y="53.309396"/>
      </g>
     </g>
    </g>
    <g id="ytick_14">
     <g id="line2d_24">
      <g>
       <use style="stroke:#000000;stroke-width:0.6;" x="54.237331" xlink:href="#m3777e1986b" y="48.533104"/>
      </g>
     </g>
    </g>
    <g id="ytick_15">
     <g id="line2d_25">
      <g>
       <use style="stroke:#000000;stroke-width:0.6;" x="54.237331" xlink:href="#m3777e1986b" y="44.494806"/>
      </g>
     </g>
    </g>
    <g id="ytick_16">
     <g id="line2d_26">
      <g>
       <use style="stroke:#000000;stroke-width:0.6;" x="54.237331" xlink:href="#m3777e1986b" y="40.996674"/>
      </g>
     </g>
    </g>
    <g id="ytick_17">
     <g id="line2d_27">
      <g>
       <use style="stroke:#000000;stroke-width:0.6;" x="54.237331" xlink:href="#m3777e1986b" y="37.911102"/>
      </g>
     </g>
    </g>
    <g id="ytick_18">
     <g id="line2d_28">
      <g>
       <use style="stroke:#000000;stroke-width:0.6;" x="54.237331" xlink:href="#m3777e1986b" y="16.992532"/>
      </g>
     </g>
    </g>
    <g id="text_8">
     <!-- Standard deviation -->
     <defs>
      <path d="M 53.515625 70.515625 
L 53.515625 60.890625 
Q 47.90625 63.578125 42.921875 64.890625 
Q 37.9375 66.21875 33.296875 66.21875 
Q 25.25 66.21875 20.875 63.09375 
Q 16.5 59.96875 16.5 54.203125 
Q 16.5 49.359375 19.40625 46.890625 
Q 22.3125 44.4375 30.421875 42.921875 
L 36.375 41.703125 
Q 47.40625 39.59375 52.65625 34.296875 
Q 57.90625 29 57.90625 20.125 
Q 57.90625 9.515625 50.796875 4.046875 
Q 43.703125 -1.421875 29.984375 -1.421875 
Q 24.8125 -1.421875 18.96875 -0.25 
Q 13.140625 0.921875 6.890625 3.21875 
L 6.890625 13.375 
Q 12.890625 10.015625 18.65625 8.296875 
Q 24.421875 6.59375 29.984375 6.59375 
Q 38.421875 6.59375 43.015625 9.90625 
Q 47.609375 13.234375 47.609375 19.390625 
Q 47.609375 24.75 44.3125 27.78125 
Q 41.015625 30.8125 33.5 32.328125 
L 27.484375 33.5 
Q 16.453125 35.6875 11.515625 40.375 
Q 6.59375 45.0625 6.59375 53.421875 
Q 6.59375 63.09375 13.40625 68.65625 
Q 20.21875 74.21875 32.171875 74.21875 
Q 37.3125 74.21875 42.625 73.28125 
Q 47.953125 72.359375 53.515625 70.515625 
z
" id="DejaVuSans-83"/>
      <path d="M 18.3125 70.21875 
L 18.3125 54.6875 
L 36.8125 54.6875 
L 36.8125 47.703125 
L 18.3125 47.703125 
L 18.3125 18.015625 
Q 18.3125 11.328125 20.140625 9.421875 
Q 21.96875 7.515625 27.59375 7.515625 
L 36.8125 7.515625 
L 36.8125 0 
L 27.59375 0 
Q 17.1875 0 13.234375 3.875 
Q 9.28125 7.765625 9.28125 18.015625 
L 9.28125 47.703125 
L 2.6875 47.703125 
L 2.6875 54.6875 
L 9.28125 54.6875 
L 9.28125 70.21875 
z
" id="DejaVuSans-116"/>
      <path d="M 34.28125 27.484375 
Q 23.390625 27.484375 19.1875 25 
Q 14.984375 22.515625 14.984375 16.5 
Q 14.984375 11.71875 18.140625 8.90625 
Q 21.296875 6.109375 26.703125 6.109375 
Q 34.1875 6.109375 38.703125 11.40625 
Q 43.21875 16.703125 43.21875 25.484375 
L 43.21875 27.484375 
z
M 52.203125 31.203125 
L 52.203125 0 
L 43.21875 0 
L 43.21875 8.296875 
Q 40.140625 3.328125 35.546875 0.953125 
Q 30.953125 -1.421875 24.3125 -1.421875 
Q 15.921875 -1.421875 10.953125 3.296875 
Q 6 8.015625 6 15.921875 
Q 6 25.140625 12.171875 29.828125 
Q 18.359375 34.515625 30.609375 34.515625 
L 43.21875 34.515625 
L 43.21875 35.40625 
Q 43.21875 41.609375 39.140625 45 
Q 35.0625 48.390625 27.6875 48.390625 
Q 23 48.390625 18.546875 47.265625 
Q 14.109375 46.140625 10.015625 43.890625 
L 10.015625 52.203125 
Q 14.9375 54.109375 19.578125 55.046875 
Q 24.21875 56 28.609375 56 
Q 40.484375 56 46.34375 49.84375 
Q 52.203125 43.703125 52.203125 31.203125 
z
" id="DejaVuSans-97"/>
      <path d="M 54.890625 33.015625 
L 54.890625 0 
L 45.90625 0 
L 45.90625 32.71875 
Q 45.90625 40.484375 42.875 44.328125 
Q 39.84375 48.1875 33.796875 48.1875 
Q 26.515625 48.1875 22.3125 43.546875 
Q 18.109375 38.921875 18.109375 30.90625 
L 18.109375 0 
L 9.078125 0 
L 9.078125 54.6875 
L 18.109375 54.6875 
L 18.109375 46.1875 
Q 21.34375 51.125 25.703125 53.5625 
Q 30.078125 56 35.796875 56 
Q 45.21875 56 50.046875 50.171875 
Q 54.890625 44.34375 54.890625 33.015625 
z
" id="DejaVuSans-110"/>
      <path d="M 45.40625 46.390625 
L 45.40625 75.984375 
L 54.390625 75.984375 
L 54.390625 0 
L 45.40625 0 
L 45.40625 8.203125 
Q 42.578125 3.328125 38.25 0.953125 
Q 33.9375 -1.421875 27.875 -1.421875 
Q 17.96875 -1.421875 11.734375 6.484375 
Q 5.515625 14.40625 5.515625 27.296875 
Q 5.515625 40.1875 11.734375 48.09375 
Q 17.96875 56 27.875 56 
Q 33.9375 56 38.25 53.625 
Q 42.578125 51.265625 45.40625 46.390625 
z
M 14.796875 27.296875 
Q 14.796875 17.390625 18.875 11.75 
Q 22.953125 6.109375 30.078125 6.109375 
Q 37.203125 6.109375 41.296875 11.75 
Q 45.40625 17.390625 45.40625 27.296875 
Q 45.40625 37.203125 41.296875 42.84375 
Q 37.203125 48.484375 30.078125 48.484375 
Q 22.953125 48.484375 18.875 42.84375 
Q 14.796875 37.203125 14.796875 27.296875 
z
" id="DejaVuSans-100"/>
      <path d="M 41.109375 46.296875 
Q 39.59375 47.171875 37.8125 47.578125 
Q 36.03125 48 33.890625 48 
Q 26.265625 48 22.1875 43.046875 
Q 18.109375 38.09375 18.109375 28.8125 
L 18.109375 0 
L 9.078125 0 
L 9.078125 54.6875 
L 18.109375 54.6875 
L 18.109375 46.1875 
Q 20.953125 51.171875 25.484375 53.578125 
Q 30.03125 56 36.53125 56 
Q 37.453125 56 38.578125 55.875 
Q 39.703125 55.765625 41.0625 55.515625 
z
" id="DejaVuSans-114"/>
     </defs>
     <g transform="translate(19.621706 130.896875)rotate(-90)scale(0.12 -0.12)">
      <use xlink:href="#DejaVuSans-83"/>
      <use x="63.476562" xlink:href="#DejaVuSans-116"/>
      <use x="102.685547" xlink:href="#DejaVuSans-97"/>
      <use x="163.964844" xlink:href="#DejaVuSans-110"/>
      <use x="227.34375" xlink:href="#DejaVuSans-100"/>
      <use x="290.820312" xlink:href="#DejaVuSans-97"/>
      <use x="352.099609" xlink:href="#DejaVuSans-114"/>
      <use x="393.197266" xlink:href="#DejaVuSans-100"/>
      <use x="456.673828" xlink:href="#DejaVuSans-32"/>
      <use x="488.460938" xlink:href="#DejaVuSans-100"/>
      <use x="551.9375" xlink:href="#DejaVuSans-101"/>
      <use x="613.460938" xlink:href="#DejaVuSans-118"/>
      <use x="672.640625" xlink:href="#DejaVuSans-105"/>
      <use x="700.423828" xlink:href="#DejaVuSans-97"/>
      <use x="761.703125" xlink:href="#DejaVuSans-116"/>
      <use x="800.912109" xlink:href="#DejaVuSans-105"/>
      <use x="828.695312" xlink:href="#DejaVuSans-111"/>
      <use x="889.876953" xlink:href="#DejaVuSans-110"/>
     </g>
    </g>
   </g>
   <g id="line2d_29">
    <path clip-path="url(#p02d07be7a2)" d="M 60.980167 27.224673 
L 63.265875 42.07262 
L 65.551582 53.120775 
L 67.837289 52.130753 
L 70.122997 60.427403 
L 72.408704 59.887815 
L 74.694411 66.105488 
L 76.980119 58.109829 
L 79.265826 63.454044 
L 81.551534 60.53152 
L 83.837241 61.572387 
L 86.122948 76.460415 
L 88.408656 61.602379 
L 90.694363 69.878912 
L 92.98007 80.146232 
L 95.265778 70.046289 
L 97.551485 78.234907 
L 99.837192 83.281101 
L 102.1229 82.246218 
L 104.408607 70.840779 
L 106.694314 79.880335 
L 108.980022 79.111232 
L 111.265729 85.47345 
L 113.551437 81.997391 
L 115.837144 84.918244 
L 118.122851 82.473234 
L 120.408559 85.465149 
L 122.694266 82.138718 
L 124.979973 85.386798 
L 127.265681 83.359704 
L 129.551388 79.413034 
L 131.837095 78.732993 
L 134.122803 85.880043 
L 136.40851 86.58116 
L 138.694217 86.257798 
L 140.979925 84.800463 
L 143.265632 88.334104 
L 145.55134 89.174988 
L 147.837047 85.183971 
L 150.122754 88.667786 
L 152.408462 89.348522 
L 154.694169 87.054507 
L 156.979876 91.197286 
L 159.265584 94.571956 
L 161.551291 88.598305 
L 163.836998 87.7293 
L 166.122706 89.317904 
L 168.408413 89.655731 
L 170.69412 89.81377 
L 172.979828 89.95797 
L 175.265535 89.79382 
L 177.551243 89.340897 
L 179.83695 90.536025 
L 182.122657 87.816295 
L 184.408365 91.412458 
L 186.694072 94.656133 
L 188.979779 92.070362 
L 191.265487 90.352321 
L 193.551194 92.052893 
L 195.836901 90.282041 
" style="fill:none;stroke:#0000ff;stroke-dasharray:5.55,2.4;stroke-dashoffset:0;stroke-width:1.5;"/>
    <defs>
     <path d="M 0 1.5 
C 0.397805 1.5 0.77937 1.341951 1.06066 1.06066 
C 1.341951 0.77937 1.5 0.397805 1.5 0 
C 1.5 -0.397805 1.341951 -0.77937 1.06066 -1.06066 
C 0.77937 -1.341951 0.397805 -1.5 0 -1.5 
C -0.397805 -1.5 -0.77937 -1.341951 -1.06066 -1.06066 
C -1.341951 -0.77937 -1.5 -0.397805 -1.5 0 
C -1.5 0.397805 -1.341951 0.77937 -1.06066 1.06066 
C -0.77937 1.341951 -0.397805 1.5 0 1.5 
z
" id="ma23ccbaf4b" style="stroke:#0000ff;"/>
    </defs>
    <g clip-path="url(#p02d07be7a2)">
     <use style="fill:#0000ff;stroke:#0000ff;" x="60.980167" xlink:href="#ma23ccbaf4b" y="27.224673"/>
     <use style="fill:#0000ff;stroke:#0000ff;" x="63.265875" xlink:href="#ma23ccbaf4b" y="42.07262"/>
     <use style="fill:#0000ff;stroke:#0000ff;" x="65.551582" xlink:href="#ma23ccbaf4b" y="53.120775"/>
     <use style="fill:#0000ff;stroke:#0000ff;" x="67.837289" xlink:href="#ma23ccbaf4b" y="52.130753"/>
     <use style="fill:#0000ff;stroke:#0000ff;" x="70.122997" xlink:href="#ma23ccbaf4b" y="60.427403"/>
     <use style="fill:#0000ff;stroke:#0000ff;" x="72.408704" xlink:href="#ma23ccbaf4b" y="59.887815"/>
     <use style="fill:#0000ff;stroke:#0000ff;" x="74.694411" xlink:href="#ma23ccbaf4b" y="66.105488"/>
     <use style="fill:#0000ff;stroke:#0000ff;" x="76.980119" xlink:href="#ma23ccbaf4b" y="58.109829"/>
     <use style="fill:#0000ff;stroke:#0000ff;" x="79.265826" xlink:href="#ma23ccbaf4b" y="63.454044"/>
     <use style="fill:#0000ff;stroke:#0000ff;" x="81.551534" xlink:href="#ma23ccbaf4b" y="60.53152"/>
     <use style="fill:#0000ff;stroke:#0000ff;" x="83.837241" xlink:href="#ma23ccbaf4b" y="61.572387"/>
     <use style="fill:#0000ff;stroke:#0000ff;" x="86.122948" xlink:href="#ma23ccbaf4b" y="76.460415"/>
     <use style="fill:#0000ff;stroke:#0000ff;" x="88.408656" xlink:href="#ma23ccbaf4b" y="61.602379"/>
     <use style="fill:#0000ff;stroke:#0000ff;" x="90.694363" xlink:href="#ma23ccbaf4b" y="69.878912"/>
     <use style="fill:#0000ff;stroke:#0000ff;" x="92.98007" xlink:href="#ma23ccbaf4b" y="80.146232"/>
     <use style="fill:#0000ff;stroke:#0000ff;" x="95.265778" xlink:href="#ma23ccbaf4b" y="70.046289"/>
     <use style="fill:#0000ff;stroke:#0000ff;" x="97.551485" xlink:href="#ma23ccbaf4b" y="78.234907"/>
     <use style="fill:#0000ff;stroke:#0000ff;" x="99.837192" xlink:href="#ma23ccbaf4b" y="83.281101"/>
     <use style="fill:#0000ff;stroke:#0000ff;" x="102.1229" xlink:href="#ma23ccbaf4b" y="82.246218"/>
     <use style="fill:#0000ff;stroke:#0000ff;" x="104.408607" xlink:href="#ma23ccbaf4b" y="70.840779"/>
     <use style="fill:#0000ff;stroke:#0000ff;" x="106.694314" xlink:href="#ma23ccbaf4b" y="79.880335"/>
     <use style="fill:#0000ff;stroke:#0000ff;" x="108.980022" xlink:href="#ma23ccbaf4b" y="79.111232"/>
     <use style="fill:#0000ff;stroke:#0000ff;" x="111.265729" xlink:href="#ma23ccbaf4b" y="85.47345"/>
     <use style="fill:#0000ff;stroke:#0000ff;" x="113.551437" xlink:href="#ma23ccbaf4b" y="81.997391"/>
     <use style="fill:#0000ff;stroke:#0000ff;" x="115.837144" xlink:href="#ma23ccbaf4b" y="84.918244"/>
     <use style="fill:#0000ff;stroke:#0000ff;" x="118.122851" xlink:href="#ma23ccbaf4b" y="82.473234"/>
     <use style="fill:#0000ff;stroke:#0000ff;" x="120.408559" xlink:href="#ma23ccbaf4b" y="85.465149"/>
     <use style="fill:#0000ff;stroke:#0000ff;" x="122.694266" xlink:href="#ma23ccbaf4b" y="82.138718"/>
     <use style="fill:#0000ff;stroke:#0000ff;" x="124.979973" xlink:href="#ma23ccbaf4b" y="85.386798"/>
     <use style="fill:#0000ff;stroke:#0000ff;" x="127.265681" xlink:href="#ma23ccbaf4b" y="83.359704"/>
     <use style="fill:#0000ff;stroke:#0000ff;" x="129.551388" xlink:href="#ma23ccbaf4b" y="79.413034"/>
     <use style="fill:#0000ff;stroke:#0000ff;" x="131.837095" xlink:href="#ma23ccbaf4b" y="78.732993"/>
     <use style="fill:#0000ff;stroke:#0000ff;" x="134.122803" xlink:href="#ma23ccbaf4b" y="85.880043"/>
     <use style="fill:#0000ff;stroke:#0000ff;" x="136.40851" xlink:href="#ma23ccbaf4b" y="86.58116"/>
     <use style="fill:#0000ff;stroke:#0000ff;" x="138.694217" xlink:href="#ma23ccbaf4b" y="86.257798"/>
     <use style="fill:#0000ff;stroke:#0000ff;" x="140.979925" xlink:href="#ma23ccbaf4b" y="84.800463"/>
     <use style="fill:#0000ff;stroke:#0000ff;" x="143.265632" xlink:href="#ma23ccbaf4b" y="88.334104"/>
     <use style="fill:#0000ff;stroke:#0000ff;" x="145.55134" xlink:href="#ma23ccbaf4b" y="89.174988"/>
     <use style="fill:#0000ff;stroke:#0000ff;" x="147.837047" xlink:href="#ma23ccbaf4b" y="85.183971"/>
     <use style="fill:#0000ff;stroke:#0000ff;" x="150.122754" xlink:href="#ma23ccbaf4b" y="88.667786"/>
     <use style="fill:#0000ff;stroke:#0000ff;" x="152.408462" xlink:href="#ma23ccbaf4b" y="89.348522"/>
     <use style="fill:#0000ff;stroke:#0000ff;" x="154.694169" xlink:href="#ma23ccbaf4b" y="87.054507"/>
     <use style="fill:#0000ff;stroke:#0000ff;" x="156.979876" xlink:href="#ma23ccbaf4b" y="91.197286"/>
     <use style="fill:#0000ff;stroke:#0000ff;" x="159.265584" xlink:href="#ma23ccbaf4b" y="94.571956"/>
     <use style="fill:#0000ff;stroke:#0000ff;" x="161.551291" xlink:href="#ma23ccbaf4b" y="88.598305"/>
     <use style="fill:#0000ff;stroke:#0000ff;" x="163.836998" xlink:href="#ma23ccbaf4b" y="87.7293"/>
     <use style="fill:#0000ff;stroke:#0000ff;" x="166.122706" xlink:href="#ma23ccbaf4b" y="89.317904"/>
     <use style="fill:#0000ff;stroke:#0000ff;" x="168.408413" xlink:href="#ma23ccbaf4b" y="89.655731"/>
     <use style="fill:#0000ff;stroke:#0000ff;" x="170.69412" xlink:href="#ma23ccbaf4b" y="89.81377"/>
     <use style="fill:#0000ff;stroke:#0000ff;" x="172.979828" xlink:href="#ma23ccbaf4b" y="89.95797"/>
     <use style="fill:#0000ff;stroke:#0000ff;" x="175.265535" xlink:href="#ma23ccbaf4b" y="89.79382"/>
     <use style="fill:#0000ff;stroke:#0000ff;" x="177.551243" xlink:href="#ma23ccbaf4b" y="89.340897"/>
     <use style="fill:#0000ff;stroke:#0000ff;" x="179.83695" xlink:href="#ma23ccbaf4b" y="90.536025"/>
     <use style="fill:#0000ff;stroke:#0000ff;" x="182.122657" xlink:href="#ma23ccbaf4b" y="87.816295"/>
     <use style="fill:#0000ff;stroke:#0000ff;" x="184.408365" xlink:href="#ma23ccbaf4b" y="91.412458"/>
     <use style="fill:#0000ff;stroke:#0000ff;" x="186.694072" xlink:href="#ma23ccbaf4b" y="94.656133"/>
     <use style="fill:#0000ff;stroke:#0000ff;" x="188.979779" xlink:href="#ma23ccbaf4b" y="92.070362"/>
     <use style="fill:#0000ff;stroke:#0000ff;" x="191.265487" xlink:href="#ma23ccbaf4b" y="90.352321"/>
     <use style="fill:#0000ff;stroke:#0000ff;" x="193.551194" xlink:href="#ma23ccbaf4b" y="92.052893"/>
     <use style="fill:#0000ff;stroke:#0000ff;" x="195.836901" xlink:href="#ma23ccbaf4b" y="90.282041"/>
    </g>
   </g>
   <g id="line2d_30">
    <path clip-path="url(#p02d07be7a2)" d="M 60.980167 16.518182 
L 63.265875 43.097813 
L 65.551582 49.245068 
L 67.837289 64.067971 
L 70.122997 60.727918 
L 72.408704 74.170558 
L 74.694411 73.486412 
L 76.980119 74.90321 
L 79.265826 75.745381 
L 81.551534 77.373053 
L 83.837241 81.301192 
L 86.122948 61.265722 
L 88.408656 85.340476 
L 90.694363 82.022198 
L 92.98007 78.850024 
L 95.265778 82.243715 
L 97.551485 83.667314 
L 99.837192 84.043475 
L 102.1229 85.891682 
L 104.408607 84.198665 
L 106.694314 85.70527 
L 108.980022 88.169883 
L 111.265729 85.375641 
L 113.551437 87.828637 
L 115.837144 86.152195 
L 118.122851 88.764064 
L 120.408559 88.286012 
L 122.694266 88.213759 
L 124.979973 87.489937 
L 127.265681 91.477205 
L 129.551388 91.06542 
L 131.837095 89.275604 
L 134.122803 87.630086 
L 136.40851 89.342696 
L 138.694217 90.167441 
L 140.979925 91.156776 
L 143.265632 91.683398 
L 145.55134 88.134636 
L 147.837047 91.058205 
L 150.122754 87.536229 
L 152.408462 92.843174 
L 154.694169 90.713538 
L 156.979876 91.542215 
L 159.265584 92.53865 
L 161.551291 93.598725 
L 163.836998 90.03549 
L 166.122706 92.045441 
L 168.408413 94.440877 
L 170.69412 95.747347 
L 172.979828 94.170664 
L 175.265535 95.645907 
L 177.551243 94.862312 
L 179.83695 94.389171 
L 182.122657 94.172693 
L 184.408365 93.295711 
L 186.694072 93.36351 
L 188.979779 94.122468 
L 191.265487 95.357506 
L 193.551194 96.208808 
L 195.836901 97.071177 
" style="fill:none;stroke:#ff0000;stroke-dasharray:5.55,2.4;stroke-dashoffset:0;stroke-width:1.5;"/>
    <defs>
     <path d="M 0 1.5 
C 0.397805 1.5 0.77937 1.341951 1.06066 1.06066 
C 1.341951 0.77937 1.5 0.397805 1.5 0 
C 1.5 -0.397805 1.341951 -0.77937 1.06066 -1.06066 
C 0.77937 -1.341951 0.397805 -1.5 0 -1.5 
C -0.397805 -1.5 -0.77937 -1.341951 -1.06066 -1.06066 
C -1.341951 -0.77937 -1.5 -0.397805 -1.5 0 
C -1.5 0.397805 -1.341951 0.77937 -1.06066 1.06066 
C -0.77937 1.341951 -0.397805 1.5 0 1.5 
z
" id="m9e3d0e506f" style="stroke:#ff0000;"/>
    </defs>
    <g clip-path="url(#p02d07be7a2)">
     <use style="fill:#ff0000;stroke:#ff0000;" x="60.980167" xlink:href="#m9e3d0e506f" y="16.518182"/>
     <use style="fill:#ff0000;stroke:#ff0000;" x="63.265875" xlink:href="#m9e3d0e506f" y="43.097813"/>
     <use style="fill:#ff0000;stroke:#ff0000;" x="65.551582" xlink:href="#m9e3d0e506f" y="49.245068"/>
     <use style="fill:#ff0000;stroke:#ff0000;" x="67.837289" xlink:href="#m9e3d0e506f" y="64.067971"/>
     <use style="fill:#ff0000;stroke:#ff0000;" x="70.122997" xlink:href="#m9e3d0e506f" y="60.727918"/>
     <use style="fill:#ff0000;stroke:#ff0000;" x="72.408704" xlink:href="#m9e3d0e506f" y="74.170558"/>
     <use style="fill:#ff0000;stroke:#ff0000;" x="74.694411" xlink:href="#m9e3d0e506f" y="73.486412"/>
     <use style="fill:#ff0000;stroke:#ff0000;" x="76.980119" xlink:href="#m9e3d0e506f" y="74.90321"/>
     <use style="fill:#ff0000;stroke:#ff0000;" x="79.265826" xlink:href="#m9e3d0e506f" y="75.745381"/>
     <use style="fill:#ff0000;stroke:#ff0000;" x="81.551534" xlink:href="#m9e3d0e506f" y="77.373053"/>
     <use style="fill:#ff0000;stroke:#ff0000;" x="83.837241" xlink:href="#m9e3d0e506f" y="81.301192"/>
     <use style="fill:#ff0000;stroke:#ff0000;" x="86.122948" xlink:href="#m9e3d0e506f" y="61.265722"/>
     <use style="fill:#ff0000;stroke:#ff0000;" x="88.408656" xlink:href="#m9e3d0e506f" y="85.340476"/>
     <use style="fill:#ff0000;stroke:#ff0000;" x="90.694363" xlink:href="#m9e3d0e506f" y="82.022198"/>
     <use style="fill:#ff0000;stroke:#ff0000;" x="92.98007" xlink:href="#m9e3d0e506f" y="78.850024"/>
     <use style="fill:#ff0000;stroke:#ff0000;" x="95.265778" xlink:href="#m9e3d0e506f" y="82.243715"/>
     <use style="fill:#ff0000;stroke:#ff0000;" x="97.551485" xlink:href="#m9e3d0e506f" y="83.667314"/>
     <use style="fill:#ff0000;stroke:#ff0000;" x="99.837192" xlink:href="#m9e3d0e506f" y="84.043475"/>
     <use style="fill:#ff0000;stroke:#ff0000;" x="102.1229" xlink:href="#m9e3d0e506f" y="85.891682"/>
     <use style="fill:#ff0000;stroke:#ff0000;" x="104.408607" xlink:href="#m9e3d0e506f" y="84.198665"/>
     <use style="fill:#ff0000;stroke:#ff0000;" x="106.694314" xlink:href="#m9e3d0e506f" y="85.70527"/>
     <use style="fill:#ff0000;stroke:#ff0000;" x="108.980022" xlink:href="#m9e3d0e506f" y="88.169883"/>
     <use style="fill:#ff0000;stroke:#ff0000;" x="111.265729" xlink:href="#m9e3d0e506f" y="85.375641"/>
     <use style="fill:#ff0000;stroke:#ff0000;" x="113.551437" xlink:href="#m9e3d0e506f" y="87.828637"/>
     <use style="fill:#ff0000;stroke:#ff0000;" x="115.837144" xlink:href="#m9e3d0e506f" y="86.152195"/>
     <use style="fill:#ff0000;stroke:#ff0000;" x="118.122851" xlink:href="#m9e3d0e506f" y="88.764064"/>
     <use style="fill:#ff0000;stroke:#ff0000;" x="120.408559" xlink:href="#m9e3d0e506f" y="88.286012"/>
     <use style="fill:#ff0000;stroke:#ff0000;" x="122.694266" xlink:href="#m9e3d0e506f" y="88.213759"/>
     <use style="fill:#ff0000;stroke:#ff0000;" x="124.979973" xlink:href="#m9e3d0e506f" y="87.489937"/>
     <use style="fill:#ff0000;stroke:#ff0000;" x="127.265681" xlink:href="#m9e3d0e506f" y="91.477205"/>
     <use style="fill:#ff0000;stroke:#ff0000;" x="129.551388" xlink:href="#m9e3d0e506f" y="91.06542"/>
     <use style="fill:#ff0000;stroke:#ff0000;" x="131.837095" xlink:href="#m9e3d0e506f" y="89.275604"/>
     <use style="fill:#ff0000;stroke:#ff0000;" x="134.122803" xlink:href="#m9e3d0e506f" y="87.630086"/>
     <use style="fill:#ff0000;stroke:#ff0000;" x="136.40851" xlink:href="#m9e3d0e506f" y="89.342696"/>
     <use style="fill:#ff0000;stroke:#ff0000;" x="138.694217" xlink:href="#m9e3d0e506f" y="90.167441"/>
     <use style="fill:#ff0000;stroke:#ff0000;" x="140.979925" xlink:href="#m9e3d0e506f" y="91.156776"/>
     <use style="fill:#ff0000;stroke:#ff0000;" x="143.265632" xlink:href="#m9e3d0e506f" y="91.683398"/>
     <use style="fill:#ff0000;stroke:#ff0000;" x="145.55134" xlink:href="#m9e3d0e506f" y="88.134636"/>
     <use style="fill:#ff0000;stroke:#ff0000;" x="147.837047" xlink:href="#m9e3d0e506f" y="91.058205"/>
     <use style="fill:#ff0000;stroke:#ff0000;" x="150.122754" xlink:href="#m9e3d0e506f" y="87.536229"/>
     <use style="fill:#ff0000;stroke:#ff0000;" x="152.408462" xlink:href="#m9e3d0e506f" y="92.843174"/>
     <use style="fill:#ff0000;stroke:#ff0000;" x="154.694169" xlink:href="#m9e3d0e506f" y="90.713538"/>
     <use style="fill:#ff0000;stroke:#ff0000;" x="156.979876" xlink:href="#m9e3d0e506f" y="91.542215"/>
     <use style="fill:#ff0000;stroke:#ff0000;" x="159.265584" xlink:href="#m9e3d0e506f" y="92.53865"/>
     <use style="fill:#ff0000;stroke:#ff0000;" x="161.551291" xlink:href="#m9e3d0e506f" y="93.598725"/>
     <use style="fill:#ff0000;stroke:#ff0000;" x="163.836998" xlink:href="#m9e3d0e506f" y="90.03549"/>
     <use style="fill:#ff0000;stroke:#ff0000;" x="166.122706" xlink:href="#m9e3d0e506f" y="92.045441"/>
     <use style="fill:#ff0000;stroke:#ff0000;" x="168.408413" xlink:href="#m9e3d0e506f" y="94.440877"/>
     <use style="fill:#ff0000;stroke:#ff0000;" x="170.69412" xlink:href="#m9e3d0e506f" y="95.747347"/>
     <use style="fill:#ff0000;stroke:#ff0000;" x="172.979828" xlink:href="#m9e3d0e506f" y="94.170664"/>
     <use style="fill:#ff0000;stroke:#ff0000;" x="175.265535" xlink:href="#m9e3d0e506f" y="95.645907"/>
     <use style="fill:#ff0000;stroke:#ff0000;" x="177.551243" xlink:href="#m9e3d0e506f" y="94.862312"/>
     <use style="fill:#ff0000;stroke:#ff0000;" x="179.83695" xlink:href="#m9e3d0e506f" y="94.389171"/>
     <use style="fill:#ff0000;stroke:#ff0000;" x="182.122657" xlink:href="#m9e3d0e506f" y="94.172693"/>
     <use style="fill:#ff0000;stroke:#ff0000;" x="184.408365" xlink:href="#m9e3d0e506f" y="93.295711"/>
     <use style="fill:#ff0000;stroke:#ff0000;" x="186.694072" xlink:href="#m9e3d0e506f" y="93.36351"/>
     <use style="fill:#ff0000;stroke:#ff0000;" x="188.979779" xlink:href="#m9e3d0e506f" y="94.122468"/>
     <use style="fill:#ff0000;stroke:#ff0000;" x="191.265487" xlink:href="#m9e3d0e506f" y="95.357506"/>
     <use style="fill:#ff0000;stroke:#ff0000;" x="193.551194" xlink:href="#m9e3d0e506f" y="96.208808"/>
     <use style="fill:#ff0000;stroke:#ff0000;" x="195.836901" xlink:href="#m9e3d0e506f" y="97.071177"/>
    </g>
   </g>
   <g id="line2d_31">
    <path clip-path="url(#p02d07be7a2)" d="M 60.980167 51.642555 
L 63.265875 68.805598 
L 65.551582 78.315414 
L 67.837289 85.247867 
L 70.122997 89.188464 
L 72.408704 89.26812 
L 74.694411 93.871513 
L 76.980119 94.341918 
L 79.265826 95.232291 
L 81.551534 97.510765 
L 83.837241 98.628234 
L 86.122948 98.640135 
L 88.408656 103.12233 
L 90.694363 104.058333 
L 92.98007 105.543145 
L 95.265778 105.987661 
L 97.551485 104.490875 
L 99.837192 106.719639 
L 102.1229 105.785735 
L 104.408607 108.312978 
L 106.694314 111.830532 
L 108.980022 113.007099 
L 111.265729 110.5198 
L 113.551437 114.387386 
L 115.837144 112.698257 
L 118.122851 113.940992 
L 120.408559 113.799262 
L 122.694266 112.456106 
L 124.979973 116.007106 
L 127.265681 114.555779 
L 129.551388 115.932439 
L 131.837095 119.731647 
L 134.122803 116.679139 
L 136.40851 121.26331 
L 138.694217 121.049633 
L 140.979925 120.426493 
L 143.265632 119.700607 
L 145.55134 120.47875 
L 147.837047 120.497396 
L 150.122754 119.350382 
L 152.408462 123.188405 
L 154.694169 122.046195 
L 156.979876 124.143857 
L 159.265584 123.124068 
L 161.551291 124.556679 
L 163.836998 122.81662 
L 166.122706 124.042846 
L 168.408413 124.473208 
L 170.69412 126.14629 
L 172.979828 127.009736 
L 175.265535 122.730654 
L 177.551243 124.523266 
L 179.83695 125.95227 
L 182.122657 128.459525 
L 184.408365 130.881818 
L 186.694072 129.020748 
L 188.979779 128.971582 
L 191.265487 128.580657 
L 193.551194 129.042185 
L 195.836901 130.005442 
" style="fill:none;stroke:#000000;stroke-dasharray:5.55,2.4;stroke-dashoffset:0;stroke-width:1.5;"/>
    <defs>
     <path d="M 0 1.5 
C 0.397805 1.5 0.77937 1.341951 1.06066 1.06066 
C 1.341951 0.77937 1.5 0.397805 1.5 0 
C 1.5 -0.397805 1.341951 -0.77937 1.06066 -1.06066 
C 0.77937 -1.341951 0.397805 -1.5 0 -1.5 
C -0.397805 -1.5 -0.77937 -1.341951 -1.06066 -1.06066 
C -1.341951 -0.77937 -1.5 -0.397805 -1.5 0 
C -1.5 0.397805 -1.341951 0.77937 -1.06066 1.06066 
C -0.77937 1.341951 -0.397805 1.5 0 1.5 
z
" id="m11a9433a6e" style="stroke:#000000;"/>
    </defs>
    <g clip-path="url(#p02d07be7a2)">
     <use style="stroke:#000000;" x="60.980167" xlink:href="#m11a9433a6e" y="51.642555"/>
     <use style="stroke:#000000;" x="63.265875" xlink:href="#m11a9433a6e" y="68.805598"/>
     <use style="stroke:#000000;" x="65.551582" xlink:href="#m11a9433a6e" y="78.315414"/>
     <use style="stroke:#000000;" x="67.837289" xlink:href="#m11a9433a6e" y="85.247867"/>
     <use style="stroke:#000000;" x="70.122997" xlink:href="#m11a9433a6e" y="89.188464"/>
     <use style="stroke:#000000;" x="72.408704" xlink:href="#m11a9433a6e" y="89.26812"/>
     <use style="stroke:#000000;" x="74.694411" xlink:href="#m11a9433a6e" y="93.871513"/>
     <use style="stroke:#000000;" x="76.980119" xlink:href="#m11a9433a6e" y="94.341918"/>
     <use style="stroke:#000000;" x="79.265826" xlink:href="#m11a9433a6e" y="95.232291"/>
     <use style="stroke:#000000;" x="81.551534" xlink:href="#m11a9433a6e" y="97.510765"/>
     <use style="stroke:#000000;" x="83.837241" xlink:href="#m11a9433a6e" y="98.628234"/>
     <use style="stroke:#000000;" x="86.122948" xlink:href="#m11a9433a6e" y="98.640135"/>
     <use style="stroke:#000000;" x="88.408656" xlink:href="#m11a9433a6e" y="103.12233"/>
     <use style="stroke:#000000;" x="90.694363" xlink:href="#m11a9433a6e" y="104.058333"/>
     <use style="stroke:#000000;" x="92.98007" xlink:href="#m11a9433a6e" y="105.543145"/>
     <use style="stroke:#000000;" x="95.265778" xlink:href="#m11a9433a6e" y="105.987661"/>
     <use style="stroke:#000000;" x="97.551485" xlink:href="#m11a9433a6e" y="104.490875"/>
     <use style="stroke:#000000;" x="99.837192" xlink:href="#m11a9433a6e" y="106.719639"/>
     <use style="stroke:#000000;" x="102.1229" xlink:href="#m11a9433a6e" y="105.785735"/>
     <use style="stroke:#000000;" x="104.408607" xlink:href="#m11a9433a6e" y="108.312978"/>
     <use style="stroke:#000000;" x="106.694314" xlink:href="#m11a9433a6e" y="111.830532"/>
     <use style="stroke:#000000;" x="108.980022" xlink:href="#m11a9433a6e" y="113.007099"/>
     <use style="stroke:#000000;" x="111.265729" xlink:href="#m11a9433a6e" y="110.5198"/>
     <use style="stroke:#000000;" x="113.551437" xlink:href="#m11a9433a6e" y="114.387386"/>
     <use style="stroke:#000000;" x="115.837144" xlink:href="#m11a9433a6e" y="112.698257"/>
     <use style="stroke:#000000;" x="118.122851" xlink:href="#m11a9433a6e" y="113.940992"/>
     <use style="stroke:#000000;" x="120.408559" xlink:href="#m11a9433a6e" y="113.799262"/>
     <use style="stroke:#000000;" x="122.694266" xlink:href="#m11a9433a6e" y="112.456106"/>
     <use style="stroke:#000000;" x="124.979973" xlink:href="#m11a9433a6e" y="116.007106"/>
     <use style="stroke:#000000;" x="127.265681" xlink:href="#m11a9433a6e" y="114.555779"/>
     <use style="stroke:#000000;" x="129.551388" xlink:href="#m11a9433a6e" y="115.932439"/>
     <use style="stroke:#000000;" x="131.837095" xlink:href="#m11a9433a6e" y="119.731647"/>
     <use style="stroke:#000000;" x="134.122803" xlink:href="#m11a9433a6e" y="116.679139"/>
     <use style="stroke:#000000;" x="136.40851" xlink:href="#m11a9433a6e" y="121.26331"/>
     <use style="stroke:#000000;" x="138.694217" xlink:href="#m11a9433a6e" y="121.049633"/>
     <use style="stroke:#000000;" x="140.979925" xlink:href="#m11a9433a6e" y="120.426493"/>
     <use style="stroke:#000000;" x="143.265632" xlink:href="#m11a9433a6e" y="119.700607"/>
     <use style="stroke:#000000;" x="145.55134" xlink:href="#m11a9433a6e" y="120.47875"/>
     <use style="stroke:#000000;" x="147.837047" xlink:href="#m11a9433a6e" y="120.497396"/>
     <use style="stroke:#000000;" x="150.122754" xlink:href="#m11a9433a6e" y="119.350382"/>
     <use style="stroke:#000000;" x="152.408462" xlink:href="#m11a9433a6e" y="123.188405"/>
     <use style="stroke:#000000;" x="154.694169" xlink:href="#m11a9433a6e" y="122.046195"/>
     <use style="stroke:#000000;" x="156.979876" xlink:href="#m11a9433a6e" y="124.143857"/>
     <use style="stroke:#000000;" x="159.265584" xlink:href="#m11a9433a6e" y="123.124068"/>
     <use style="stroke:#000000;" x="161.551291" xlink:href="#m11a9433a6e" y="124.556679"/>
     <use style="stroke:#000000;" x="163.836998" xlink:href="#m11a9433a6e" y="122.81662"/>
     <use style="stroke:#000000;" x="166.122706" xlink:href="#m11a9433a6e" y="124.042846"/>
     <use style="stroke:#000000;" x="168.408413" xlink:href="#m11a9433a6e" y="124.473208"/>
     <use style="stroke:#000000;" x="170.69412" xlink:href="#m11a9433a6e" y="126.14629"/>
     <use style="stroke:#000000;" x="172.979828" xlink:href="#m11a9433a6e" y="127.009736"/>
     <use style="stroke:#000000;" x="175.265535" xlink:href="#m11a9433a6e" y="122.730654"/>
     <use style="stroke:#000000;" x="177.551243" xlink:href="#m11a9433a6e" y="124.523266"/>
     <use style="stroke:#000000;" x="179.83695" xlink:href="#m11a9433a6e" y="125.95227"/>
     <use style="stroke:#000000;" x="182.122657" xlink:href="#m11a9433a6e" y="128.459525"/>
     <use style="stroke:#000000;" x="184.408365" xlink:href="#m11a9433a6e" y="130.881818"/>
     <use style="stroke:#000000;" x="186.694072" xlink:href="#m11a9433a6e" y="129.020748"/>
     <use style="stroke:#000000;" x="188.979779" xlink:href="#m11a9433a6e" y="128.971582"/>
     <use style="stroke:#000000;" x="191.265487" xlink:href="#m11a9433a6e" y="128.580657"/>
     <use style="stroke:#000000;" x="193.551194" xlink:href="#m11a9433a6e" y="129.042185"/>
     <use style="stroke:#000000;" x="195.836901" xlink:href="#m11a9433a6e" y="130.005442"/>
    </g>
   </g>
   <g id="patch_3">
    <path d="M 54.237331 136.6 
L 54.237331 10.8 
" style="fill:none;stroke:#000000;stroke-linecap:square;stroke-linejoin:miter;stroke-width:0.8;"/>
   </g>
   <g id="patch_4">
    <path d="M 202.579738 136.6 
L 202.579738 10.8 
" style="fill:none;stroke:#000000;stroke-linecap:square;stroke-linejoin:miter;stroke-width:0.8;"/>
   </g>
   <g id="patch_5">
    <path d="M 54.237331 136.6 
L 202.579738 136.6 
" style="fill:none;stroke:#000000;stroke-linecap:square;stroke-linejoin:miter;stroke-width:0.8;"/>
   </g>
   <g id="patch_6">
    <path d="M 54.237331 10.8 
L 202.579738 10.8 
" style="fill:none;stroke:#000000;stroke-linecap:square;stroke-linejoin:miter;stroke-width:0.8;"/>
   </g>
  </g>
 </g>
 <defs>
  <clipPath id="p02d07be7a2">
   <rect height="125.8" width="148.342407" x="54.237331" y="10.8"/>
  </clipPath>
 </defs>
</svg>
